<svg xmlns="http://www.w3.org/2000/svg" width="26.009" height="26.504" viewBox="0 0 26.009 26.504"><g transform="translate(-19.047 -14.25)"><g transform="translate(19.797 20.532)"><g transform="translate(11.097 3.658)"><path d="M0,7.7a.748.748,0,0,1-.277-.053A.75.75,0,0,1-.7,6.673L2.068-.277A.75.75,0,0,1,3.042-.7a.75.75,0,0,1,.42.974L.7,7.228A.75.75,0,0,1,0,7.7Z" fill="#3266fc"/></g><g transform="translate(15.321 8.037)"><path d="M317.426,285.63a.75.75,0,0,1-.686-1.052l2.593-5.9h-2.675a.75.75,0,0,1,0-1.5h3.824a.75.75,0,0,1,.687,1.052l-3.055,6.95A.75.75,0,0,1,317.426,285.63Z" transform="translate(-316.658 -277.929)" fill="#3266fc"/></g><g transform="translate(0 0)"><g transform="translate(5.751 0)"><path d="M134.695,129.9h-.007a.75.75,0,0,1-.743-.756c0-.4.007-.836.01-1.295h-2.721a.75.75,0,0,1-.657-1.112c.55-1,2.374-4.285,2.768-4.768a1.2,1.2,0,0,1,1.289-.472,1.244,1.244,0,0,1,.825,1.123c.021.248.015,2.054.006,3.73h.134a.75.75,0,0,1,0,1.5h-.144c0,.589-.008,1.065-.01,1.308A.75.75,0,0,1,134.695,129.9Zm-2.186-3.551h1.456c.006-.965.009-1.895.009-2.572C133.59,124.429,133.056,125.369,132.508,126.349Z" transform="translate(-131.234 -122.2)" fill="#3266fc"/></g><path d="M21.391,130.037a5.935,5.935,0,0,1-1.554-.067.783.783,0,0,1-.509-.515.916.916,0,0,1,.171-.8c.07-.1.17-.233.323-.433.353-.462,1.01-1.323,2.112-2.9a3.882,3.882,0,0,0,.615-1.215l.022-.174a1.029,1.029,0,0,0-2.037-.159.75.75,0,1,1-1.472-.289,2.529,2.529,0,0,1,5.01.489.748.748,0,0,1-.006.1l-.034.269a.747.747,0,0,1-.013.074,5.244,5.244,0,0,1-.855,1.77c-.756,1.081-1.307,1.831-1.7,2.35.631,0,1.408-.007,2.14-.016a.75.75,0,1,1,.019,1.5C22.639,130.032,21.919,130.037,21.391,130.037Z" transform="translate(-19.797 -122.199)" fill="#3266fc"/></g></g><g transform="translate(20.73 15)"><path d="M49.444,335.46a12.726,12.726,0,0,1-12.286-9.527.75.75,0,1,1,1.452-.378,11.251,11.251,0,0,0,5.679,7.13,11.108,11.108,0,0,0,7.318,1.066.75.75,0,1,1,.286,1.473A12.841,12.841,0,0,1,49.444,335.46Z" transform="translate(-37.883 -309.707)" fill="#3266fc"/><g transform="translate(6.295 0)"><path d="M178.639,58.674a.75.75,0,0,1-.325-1.426A11.228,11.228,0,0,0,168.9,36.863a.75.75,0,1,1-.606-1.372A12.728,12.728,0,0,1,178.963,58.6.747.747,0,0,1,178.639,58.674Z" transform="translate(-168.147 -34.111)" fill="#3266fc"/><path d="M162.6,18.685a.751.751,0,0,1-.176-.021l-2.741-.659a.75.75,0,0,1-.43-1.172l1.664-2.276a.75.75,0,0,1,1.211.885l-1,1.367,1.647.4a.75.75,0,0,1-.175,1.479Z" transform="translate(-159.861 -15)" fill="#3266fc"/></g></g></g></svg>