<svg xmlns="http://www.w3.org/2000/svg" width="20.382" height="25" viewBox="0 0 20.382 25"><g transform="translate(-2.104)"><g transform="translate(2.104)"><path d="M16.2,0h.178a5.353,5.353,0,0,1-1.348,4.034,4.179,4.179,0,0,1-3.679,1.727,5.193,5.193,0,0,1,1.372-3.909A5.927,5.927,0,0,1,16.2,0Z" transform="translate(-1.201)"/><path d="M22.486,17.814v.049A14.545,14.545,0,0,1,20.4,21.875c-.794,1.092-1.766,2.562-3.5,2.562-1.5,0-2.5-.965-4.035-.991-1.627-.026-2.522.807-4.009,1.017H8.349a4.53,4.53,0,0,1-2.616-1.8A15.793,15.793,0,0,1,2.1,13.575V12.456A7.327,7.327,0,0,1,5.3,6.443,5.4,5.4,0,0,1,8.93,5.6a9.124,9.124,0,0,1,1.777.509,4.908,4.908,0,0,0,1.776.532,4.264,4.264,0,0,0,1.246-.381,7.667,7.667,0,0,1,4.009-.711A5.562,5.562,0,0,1,21.826,7.99a5.245,5.245,0,0,0-2.664,5.2A5.372,5.372,0,0,0,22.486,17.814Z" transform="translate(-2.104 0.537)"/></g></g></svg>