<svg xmlns="http://www.w3.org/2000/svg" width="35" height="35" viewBox="0 0 35 35"><g transform="translate(-1090 -324)"><rect width="35" height="35" rx="8" transform="translate(1090 324)" fill="#fff"/><path d="M8,1A7.008,7.008,0,0,0,1,8V27a7.008,7.008,0,0,0,7,7H27a7.008,7.008,0,0,0,7-7V8a7.008,7.008,0,0,0-7-7H8M8,0H27a8,8,0,0,1,8,8V27a8,8,0,0,1-8,8H8a8,8,0,0,1-8-8V8A8,8,0,0,1,8,0Z" transform="translate(1090 324)" fill="#c5c5c5"/><g transform="translate(1103 334)"><g transform="translate(0)"><path d="M117.925,7.561l7.4-7.38a.62.62,0,0,1,.876.878L119.241,8l6.96,6.941a.62.62,0,0,1-.876.878l-7.4-7.38a.62.62,0,0,1,0-.878Z" transform="translate(-117.742 0)"/></g></g></g></svg>