<svg xmlns="http://www.w3.org/2000/svg" width="18" height="18" viewBox="0 0 18 18"><path d="M15.68,1.406H14.063V.563a.563.563,0,0,0-1.125,0v.844H5.063V.563a.563.563,0,0,0-1.125,0v.844H2.32A2.323,2.323,0,0,0,0,3.727V15.68A2.323,2.323,0,0,0,2.32,18H15.68A2.323,2.323,0,0,0,18,15.68V3.727A2.323,2.323,0,0,0,15.68,1.406ZM2.32,2.531H3.938v.563a.563.563,0,0,0,1.125,0V2.531h7.875v.563a.563.563,0,0,0,1.125,0V2.531H15.68a1.2,1.2,0,0,1,1.2,1.2V5.063H1.125V3.727A1.2,1.2,0,0,1,2.32,2.531ZM15.68,16.875H2.32a1.2,1.2,0,0,1-1.2-1.2V6.188h15.75V15.68A1.2,1.2,0,0,1,15.68,16.875Z" fill="#989898"/></svg>