<svg xmlns="http://www.w3.org/2000/svg" width="12.639" height="20" viewBox="0 0 12.639 20"><g transform="translate(-100.54)"><g transform="translate(100.54 0)"><g transform="translate(0 6.242)"><path d="M152.123,391.22v4.065a2.067,2.067,0,0,1-.361.031h-8.472a2.067,2.067,0,0,1-.361-.031V391.22h.761l-.185.582a.8.8,0,1,0,1.53,0l-.185-.582Z" transform="translate(-141.207 -381.559)" fill="#a1a1a1"/><path d="M152.123,310.287v.12H142.93v-.12a2.46,2.46,0,0,1,2.457-2.457h4.278A2.46,2.46,0,0,1,152.123,310.287Z" transform="translate(-141.207 -301.559)" fill="#a1a1a1"/><path d="M113.179,222.439v8.76a2.082,2.082,0,0,1-.91,1.721v-4.666a3.274,3.274,0,0,0-3.27-3.27H104.72a3.274,3.274,0,0,0-3.27,3.27v4.666a2.082,2.082,0,0,1-.91-1.721v-8.76c0-.04,0-.079,0-.119h1.235l-.158.5a.8.8,0,1,0,1.53,0l-.158-.5h10.184C113.178,222.359,113.179,222.4,113.179,222.439Z" transform="translate(-100.54 -219.525)" fill="#a1a1a1"/><path d="M116.633,155.542H104.3a2.918,2.918,0,0,1,2.761-1.982h6.811A2.918,2.918,0,0,1,116.633,155.542Z" transform="translate(-104.147 -153.56)" fill="#a1a1a1"/></g><g transform="translate(1.421)"><path d="M145.3,3.727V5.741a3.691,3.691,0,0,0-.813-.25V3.727A2.917,2.917,0,0,0,141.57.813h-2.344a2.917,2.917,0,0,0-2.913,2.914V5.491a3.692,3.692,0,0,0-.813.25V3.727A3.731,3.731,0,0,1,139.226,0h2.344A3.731,3.731,0,0,1,145.3,3.727Z" transform="translate(-135.5 0)" fill="#a1a1a1"/></g></g></g></svg>