<svg xmlns="http://www.w3.org/2000/svg" width="15.384" height="20" viewBox="0 0 15.384 20"><g transform="translate(-10.04 -2)"><path d="M54.2,52.664a2,2,0,0,0-1.117-.894l-.057-.017a.991.991,0,0,0-.211-.043,2.857,2.857,0,0,0-1.769,1.311l-.274,3.914h0l-.023.571h.217a3.282,3.282,0,0,0,3.394-2.631,2.869,2.869,0,0,0-.16-2.211Z" transform="translate(-29.073 -35.507)" fill="#a1a1a1"/><path d="M13.791,56.95l-.286-3.906c-.243-.223-.783-1.257-1.769-1.314a1.32,1.32,0,0,0-.211.043h-.04a2,2,0,0,0-1.143.9,2.841,2.841,0,0,0-.16,2.211,3.281,3.281,0,0,0,3.394,2.631h.217l-.023-.571c.043.006.06.006.02.006Z" transform="translate(0 -35.522)" fill="#a1a1a1"/><path d="M26.761,6.24h.571v.931h-.971v4.234h5.18V7.171h-.971V6.24h.571A1.031,1.031,0,0,0,32.166,5.1l-.246-2.169A1.029,1.029,0,0,0,30.889,2h-3.88a1.029,1.029,0,0,0-1.029.926L25.735,5.1a1.031,1.031,0,0,0,1.026,1.143ZM30,7.171H27.9V6.24H30Z" transform="translate(-11.206 0)" fill="#a1a1a1"/><path d="M27.607,28.56l.086-.02h.146a25.734,25.734,0,0,1-.391-5.477,2.726,2.726,0,0,0-.489-2.083,2.7,2.7,0,0,0-2.06-.9v9.94H18.573V20.1a2.453,2.453,0,0,0-2.551,2.983,25.734,25.734,0,0,1-.391,5.477.2.2,0,0,0,.04,0h.1a2.834,2.834,0,0,1,2,1.3,2.035,2.035,0,0,0,.134.171l.151.149.031.229v.2l.3,4.286h-.017v.026H25.09l.046-1.143h.029l.249-3.52.074-.12a3.394,3.394,0,0,1,2.12-1.571Z" transform="translate(-3.993 -12.914)" fill="#a1a1a1"/><path d="M27.93,36.92h5.183v4.557H27.93Z" transform="translate(-12.779 -24.943)" fill="#a1a1a1"/></g></svg>