<svg xmlns="http://www.w3.org/2000/svg" width="14.984" height="15" viewBox="0 0 14.984 15"><g transform="translate(-6.059 -6.005)"><g transform="translate(6.059 6.005)"><path d="M13.547,21.005A7.525,7.525,0,0,1,6.8,16.8,7.5,7.5,0,0,1,15.417,6.241a.577.577,0,1,1-.288,1.118,6.345,6.345,0,0,0-7.288,8.933,6.461,6.461,0,0,0,5.878,3.558,6.347,6.347,0,0,0,5.968-7.932.577.577,0,0,1,1.118-.288A7.5,7.5,0,0,1,13.751,21Z" transform="translate(-6.059 -6.005)" fill="#109813"/></g><g transform="translate(12.965 7.227)"><path d="M30.577,18.317a.577.577,0,0,1-.408-.985l6.923-6.923a.577.577,0,1,1,.816.816l-6.923,6.923a.575.575,0,0,1-.408.169Z" transform="translate(-30 -10.24)" fill="#109813"/></g><g transform="translate(10.518 11.703)"><path d="M24.54,29.357a.574.574,0,0,1-.408-.169L21.684,26.74a.577.577,0,0,1,.816-.816l2.448,2.448a.577.577,0,0,1-.408.985Z" transform="translate(-21.515 -25.755)" fill="#109813"/></g></g></svg>