<svg xmlns="http://www.w3.org/2000/svg" width="360" height="186.939" viewBox="0 0 360 186.939">
  <g id="confm" transform="translate(-780 -417.661)">
    <g id="Group_8701" data-name="Group 8701" transform="translate(780 417.661)">
      <path id="Path_79749" data-name="Path 79749" d="M514.538,34.949l.711-13.438.832,13.449c.156,2.511,1.78,4.52,3.811,4.712l10.877,1.03L519.9,41.58c-2.029.164-3.635,2.15-3.768,4.659l-.711,13.439-.833-13.449c-.155-2.511-1.779-4.52-3.81-4.712L499.9,40.487l10.868-.878C512.8,39.444,514.405,37.459,514.538,34.949Z" transform="translate(-232.789 -8.178)" fill="#ffbe3f"/>
      <path id="Path_79751" data-name="Path 79751" d="M684.15,274.126l.481-9.08.562,9.087a3.192,3.192,0,0,0,2.575,3.183l7.349.7-7.344.594a3.1,3.1,0,0,0-2.546,3.148l-.48,9.08-.563-9.087a3.192,3.192,0,0,0-2.575-3.183l-7.349-.7,7.343-.594A3.1,3.1,0,0,0,684.15,274.126Z" transform="translate(-353.323 -129.933)" fill="#ffbe3f"/>
      <path id="Path_79752" data-name="Path 79752" d="M294.409,34.949l.711-13.438.833,13.449c.155,2.511,1.779,4.52,3.81,4.712L310.64,40.7l-10.868.879c-2.029.164-3.635,2.15-3.768,4.659l-.711,13.439-.832-13.449c-.156-2.511-1.78-4.52-3.811-4.712l-10.877-1.03,10.868-.878C292.67,39.444,294.276,37.459,294.409,34.949Z" transform="translate(-106.663 -21.511)" fill="#ffbe3f"/>
      <path id="Path_79754" data-name="Path 79754" d="M122.981,101.69l.275-5.214.323,5.219a1.833,1.833,0,0,0,1.479,1.828l4.219.4-4.216.341a1.782,1.782,0,0,0-1.462,1.808l-.275,5.214L123,106.067a1.834,1.834,0,0,0-1.479-1.828l-4.219-.4,4.216-.341A1.782,1.782,0,0,0,122.981,101.69Z" transform="translate(-45.953 -37.219)" fill="#ffbe3f"/>
      <path id="Path_79755" data-name="Path 79755" d="M250.087,30.212,250.362,25l.323,5.218a1.834,1.834,0,0,0,1.479,1.828l4.219.4-4.216.341a1.781,1.781,0,0,0-1.462,1.807l-.276,5.214-.323-5.218a1.835,1.835,0,0,0-1.479-1.828l-4.219-.4,4.216-.341A1.783,1.783,0,0,0,250.087,30.212Z" transform="translate(-99.253 -22.242)" fill="#ffbe3f"/>
      <path id="Path_79756" data-name="Path 79756" d="M65.9,279.81l.793-14.982.928,14.993c.174,2.8,1.984,5.038,4.249,5.253L84,286.222l-12.116.98c-2.262.183-4.053,2.4-4.2,5.194l-.793,14.982-.928-14.993c-.174-2.8-1.984-5.038-4.249-5.253l-12.126-1.148L61.7,285C63.966,284.82,65.756,282.606,65.9,279.81Z" transform="translate(-0.674 -143.302)" fill="#ffbe3f"/>
      <path id="Path_79757" data-name="Path 79757" d="M558.187,149.937l.561-10.606.657,10.614a3.729,3.729,0,0,0,3.008,3.718l8.584.813-8.577.694a3.623,3.623,0,0,0-2.974,3.676l-.56,10.606-.658-10.614a3.729,3.729,0,0,0-3.007-3.719l-8.584-.813,8.577-.693A3.624,3.624,0,0,0,558.187,149.937Z" transform="translate(-282.581 -32.865)" fill="#ffbe3f"/>
      <path id="Path_79758" data-name="Path 79758" d="M691.838,132.884l.289-5.456.338,5.461a1.918,1.918,0,0,0,1.547,1.913l4.416.418-4.413.357a1.864,1.864,0,0,0-1.53,1.892l-.289,5.457-.338-5.461a1.918,1.918,0,0,0-1.547-1.913l-4.416-.418,4.412-.357A1.864,1.864,0,0,0,691.838,132.884Z" transform="translate(-338.428 -43.705)" fill="#ffbe3f"/>
      <path id="Path_79759" data-name="Path 79759" d="M32.982,134.931l.289-5.457.338,5.461a1.918,1.918,0,0,0,1.547,1.913l4.416.418-4.413.357a1.864,1.864,0,0,0-1.53,1.892l-.289,5.456L33,139.51a1.918,1.918,0,0,0-1.547-1.913l-4.416-.418,4.413-.356A1.865,1.865,0,0,0,32.982,134.931Z" transform="translate(-27.039 -44.133)" fill="#ffbe3f"/>
      <path id="Path_79761" data-name="Path 79761" d="M647.794,249.283l.285-5.389.334,5.393a1.9,1.9,0,0,0,1.528,1.89l4.363.413-4.359.353a1.841,1.841,0,0,0-1.511,1.869l-.285,5.389-.334-5.393a1.9,1.9,0,0,0-1.529-1.89l-4.362-.413,4.358-.353A1.843,1.843,0,0,0,647.794,249.283Z" transform="translate(-414.548 -80.468)" fill="#ffbe3f"/>
      <path id="Path_79762" data-name="Path 79762" d="M94.841,311.5l.285-5.389.334,5.394a1.894,1.894,0,0,0,1.529,1.889l4.362.413-4.359.353a1.842,1.842,0,0,0-1.511,1.869l-.285,5.389-.334-5.394a1.894,1.894,0,0,0-1.528-1.889l-4.363-.413,4.359-.353A1.841,1.841,0,0,0,94.841,311.5Z" transform="translate(-53.349 -134.479)" fill="#ffbe3f"/>
    </g>
    <g id="gift" transform="translate(910 457)">
      <path id="Path_79743" data-name="Path 79743" d="M79.083,62H8.25A6.258,6.258,0,0,1,2,55.75V14.083A2.084,2.084,0,0,1,4.083,12H83.25a2.084,2.084,0,0,1,2.083,2.083V55.75A6.258,6.258,0,0,1,79.083,62ZM6.167,16.167V55.75A2.089,2.089,0,0,0,8.25,57.833H79.083a2.089,2.089,0,0,0,2.083-2.083V16.167Z" transform="translate(6.333 38)" fill="#218cef"/>
      <path id="Path_79744" data-name="Path 79744" d="M93.75,32H6.25A6.258,6.258,0,0,1,0,25.75V13.25A6.258,6.258,0,0,1,6.25,7h87.5A6.258,6.258,0,0,1,100,13.25v12.5A6.258,6.258,0,0,1,93.75,32ZM6.25,11.167A2.089,2.089,0,0,0,4.167,13.25v12.5A2.089,2.089,0,0,0,6.25,27.833h87.5a2.089,2.089,0,0,0,2.083-2.083V13.25a2.089,2.089,0,0,0-2.083-2.083Z" transform="translate(0 22.167)" fill="#218cef"/>
      <path id="Path_79745" data-name="Path 79745" d="M13.584,33.333a2.084,2.084,0,0,1-2.063-2.375C11.567,30.646,16.226,0,40.667,0,51.434,0,55.255,5.817,55.255,10.8c0,9.358-12.929,22.537-41.671,22.537ZM40.667,4.167c-17.133,0-22.975,18.271-24.537,24.958,22.829-.708,34.958-10.9,34.958-18.329A5.421,5.421,0,0,0,48.78,6.275C46.947,4.9,44.138,4.167,40.667,4.167Z" transform="translate(36.416 0)" fill="#218cef"/>
      <path id="Path_79746" data-name="Path 79746" d="M43.671,33.333C14.929,33.333,2,20.154,2,10.8A9.642,9.642,0,0,1,5.971,2.942C8.533,1.017,12.2,0,16.588,0c24.442,0,29.1,30.646,29.146,30.958a2.084,2.084,0,0,1-2.062,2.375ZM16.588,4.167C10.158,4.167,6.167,6.7,6.167,10.8c0,7.433,12.137,17.625,34.979,18.333C39.633,22.4,33.938,4.167,16.588,4.167Z" transform="translate(6.333 0)" fill="#218cef"/>
      <path id="Path_79747" data-name="Path 79747" d="M13.583,77.833A2.084,2.084,0,0,1,11.5,75.75V9.083a2.083,2.083,0,1,1,4.167,0V75.75A2.084,2.084,0,0,1,13.583,77.833Z" transform="translate(36.417 22.167)" fill="#218cef"/>
    </g>
  </g>
</svg>
