<svg xmlns="http://www.w3.org/2000/svg" xmlns:xlink="http://www.w3.org/1999/xlink" width="437.17" height="501.77" viewBox="0 0 437.17 501.77"><defs><linearGradient id="a" y1="0.614" x2="1" y2="0.764" gradientUnits="objectBoundingBox"><stop offset="0" stop-color="#fff"/><stop offset="1" stop-color="#c5d2de"/></linearGradient></defs><g transform="translate(-309.997 -308.186)"><g transform="translate(274.893 486.956)"><path d="M217.389,209.692l12.129,37.1a3.936,3.936,0,0,0,6.247,1.813l36.224-29.9s-38.493-15.015-38.493-14.2S217.389,209.692,217.389,209.692Z" fill="#b5d1db"/><path d="M312.963,138.388c-23.657,9.356-100.013,40.646-128.914,52.5a4.415,4.415,0,0,0,.343,8.291l33,10.511,12.091,36.983a4,4,0,0,0,3.084,2.7c1.112.209,2.752-29.949,2.752-29.949S270,245.155,286.458,257.3a6.854,6.854,0,0,0,10.8-4.2c4.9-25.262,17.157-88.425,21.346-110.018A4.184,4.184,0,0,0,312.963,138.388Z" fill="#fff"/><path d="M232.564,249.378c1.112.209,2.752-29.949,2.752-29.949L292.3,165.9a.441.441,0,0,0-.528-.7l-74.387,44.493,12.091,36.983A4,4,0,0,0,232.564,249.378Z" fill="#d6e2ea"/><path d="M35.111,323l-.006-2c1.622-.005,3.287-.049,4.951-.13l.1,2C38.46,322.95,36.763,322.995,35.111,323Zm10.072-.487L45,320.521c1.626-.149,3.285-.336,4.929-.554l.263,1.983C48.521,322.172,46.836,322.361,45.183,322.513Zm9.99-1.323-.34-1.971c1.617-.279,3.256-.593,4.873-.935l.414,1.957C58.479,320.588,56.814,320.907,55.173,321.19Zm9.855-2.083-.486-1.94c1.6-.4,3.209-.836,4.791-1.295l.557,1.921C68.285,318.259,66.649,318.7,65.028,319.107ZM74.7,316.3l-.628-1.9c1.568-.519,3.143-1.072,4.681-1.646l.7,1.874C77.892,315.212,76.293,315.774,74.7,316.3Zm9.438-3.521-.77-1.846c1.528-.638,3.055-1.31,4.539-2l.843,1.814C87.243,311.448,85.692,312.132,84.14,312.779Zm9.139-4.249-.916-1.778c1.474-.76,2.939-1.555,4.357-2.365l.992,1.737C96.269,306.949,94.777,307.758,93.279,308.531Zm8.756-5-1.069-1.69c1.4-.887,2.789-1.81,4.122-2.745l1.148,1.638C104.877,301.682,103.463,302.623,102.034,303.527Zm8.263-5.8-1.229-1.578c1.309-1.019,2.594-2.076,3.82-3.142l1.312,1.51C112.947,295.607,111.634,296.687,110.3,297.728Zm69.682-3.246-.055-2c1.643-.045,3.291-.162,4.9-.347l.229,1.987C183.386,294.315,181.679,294.436,179.979,294.483Zm-5.077-.07c-1.649-.086-3.348-.235-5.049-.441l.241-1.985c1.656.2,3.308.346,4.912.429Zm15.174-1.1-.41-1.957c1.609-.337,3.205-.753,4.743-1.235l.6,1.908C193.408,292.528,191.749,292.96,190.077,293.311ZM164.85,293.2c-1.629-.3-3.292-.658-4.943-1.062l.475-1.943c1.615.394,3.241.744,4.832,1.038ZM117.922,291.1l-1.4-1.433c1.187-1.156,2.342-2.351,3.433-3.551l1.48,1.345C120.32,288.688,119.137,289.912,117.922,291.1Zm37.111-.284c-1.592-.479-3.206-1.009-4.8-1.576l.671-1.884c1.56.556,3.142,1.076,4.7,1.545Zm44.758-.56L199,288.416a44.684,44.684,0,0,0,4.376-2.177l.989,1.738A46.687,46.687,0,0,1,199.79,290.253Zm-54.267-2.824c-1.543-.635-3.1-1.317-4.621-2.028l.846-1.812c1.495.7,3.021,1.367,4.536,1.99Zm63.132-2.23-1.184-1.612a40.351,40.351,0,0,0,3.749-3.117l1.37,1.457A42.364,42.364,0,0,1,208.655,285.2ZM124.723,283.6l-1.564-1.247c1.03-1.291,2.02-2.623,2.942-3.957l1.645,1.137C126.8,280.909,125.781,282.277,124.723,283.6Zm11.657-.443c-1.484-.777-2.969-1.6-4.414-2.443l1.008-1.727c1.419.828,2.877,1.635,4.334,2.4Zm79.716-4.969-1.54-1.276a39.293,39.293,0,0,0,2.868-3.939l1.687,1.074A41.3,41.3,0,0,1,216.1,278.192Zm-88.429-.117c-1.412-.914-2.815-1.87-4.171-2.841l1.165-1.626c1.33.953,2.708,1.891,4.093,2.788Zm2.813-2.808-1.722-1.016c.836-1.417,1.624-2.874,2.343-4.331l1.794.884C132.154,272.306,131.342,273.807,130.48,275.267ZM119.465,272.2c-1.323-1.049-2.628-2.137-3.878-3.235l1.32-1.5c1.225,1.076,2.5,2.143,3.8,3.171Zm102.127-2.62-1.8-.862c.563-1.179,1.081-2.41,1.539-3.658l1.878.689C222.724,267.051,222.182,268.34,221.592,269.576Zm-86.63-3.407-1.857-.743c.608-1.52,1.162-3.08,1.647-4.637l1.91.595C136.161,262.99,135.59,264.6,134.962,266.169Zm-23.082-.642c-1.212-1.184-2.4-2.407-3.516-3.633l1.476-1.35c1.1,1.2,2.253,2.394,3.438,3.552Zm-6.818-7.466c-1.07-1.321-2.1-2.678-3.061-4.033l1.632-1.157c.936,1.32,1.94,2.643,2.983,3.931Zm32.916-1.585-1.951-.438c.359-1.6.65-3.226.865-4.834l1.982.265C138.651,253.136,138.349,254.82,137.978,256.476ZM99.212,249.8c-.888-1.455-1.723-2.943-2.482-4.424l1.78-.913c.737,1.437,1.548,2.882,2.41,4.3Zm40.107-3.4-2-.084c.069-1.639.06-3.288-.025-4.9l2-.105C139.382,242.985,139.391,244.7,139.319,246.4Zm-44.728-5.634c-.655-1.574-1.245-3.179-1.755-4.771l1.9-.61c.492,1.538,1.063,3.09,1.7,4.612Zm42.208-4.228a47.781,47.781,0,0,0-.984-4.8l1.936-.5a49.784,49.784,0,0,1,1.025,5Zm-45.3-5.452c-.053-.235-.1-.474-.154-.709a34.553,34.553,0,0,1-.635-4.368l1.994-.158a32.546,32.546,0,0,0,.6,4.114c.048.227.1.457.148.684Zm42.833-4a44.544,44.544,0,0,0-1.975-4.47l1.782-.908a46.538,46.538,0,0,1,2.064,4.672Zm-41.606-6.053-1.992-.184a26.293,26.293,0,0,1,.975-5.1l1.916.573A24.289,24.289,0,0,0,92.729,221.029ZM129.9,218.39a43.755,43.755,0,0,0-2.916-3.919l1.535-1.282a45.76,45.76,0,0,1,3.05,4.1Zm-34.408-6.448-1.734-1a19.586,19.586,0,0,1,3.191-4.173l1.407,1.422A17.587,17.587,0,0,0,95.494,211.942Zm28.157-1.045c-.226-.217-.458-.435-.69-.648a30.516,30.516,0,0,0-3.029-2.461l1.155-1.633a32.53,32.53,0,0,1,3.229,2.622c.242.222.484.45.72.677Zm-21.515-5.456-.912-1.78a16.346,16.346,0,0,1,5.047-1.623l.3,1.978A14.349,14.349,0,0,0,102.136,205.441Zm13.638-.031a18.518,18.518,0,0,0-4.532-1.357l.314-1.975a20.517,20.517,0,0,1,5.023,1.5Z" fill="#fff"/></g><path d="M414.849,211.1a9.7,9.7,0,0,0-10.433-12.279,14.554,14.554,0,0,0-28.532,1.642,10.268,10.268,0,0,0-1.321-.1,10.146,10.146,0,1,0,0,20.291h38.588a4.93,4.93,0,0,0,1.7-9.559Z" transform="translate(329.084 306.361)" fill="url(#a)"/><path d="M414.771,135.869a6.794,6.794,0,0,0-1.169.108,14.617,14.617,0,0,0-2.59-21.216,28.636,28.636,0,0,0-57.086,3.269c0,.921.048,1.831.133,2.73-.045,0-.088-.007-.133-.007a12.9,12.9,0,0,0-6.175,1.564,16.893,16.893,0,1,0-13.474,27.074h80.493a6.761,6.761,0,1,0,0-13.521Z" transform="translate(298.084 218.796)" fill="url(#a)"/><path d="M176.425,219.778l-.072,0a10.749,10.749,0,0,0,.072-1.2,10.53,10.53,0,0,0-17.507-7.9,12,12,0,0,0-6.59-5.012,17.5,17.5,0,0,0-33.96,5.952c0,.3.008.6.023.9a9.454,9.454,0,0,0-6.306-2.408,9.8,9.8,0,0,0-1.038.06,13.606,13.606,0,0,0-25.4,9.7,4.674,4.674,0,0,0,.946,9.251h89.836a4.673,4.673,0,0,0,0-9.347Z" transform="translate(279.901 203.875)" fill="url(#a)"/><g transform="translate(237.703 339.943)"><path d="M309.147,161.8a7.127,7.127,0,0,1-5.671-4.455c-1.512-4.049,2.429-5.771-.83-8.9s-8.078-2.363-12.7-3.938-6.057-6.274-7.075-6-2.505,9.179,11.248,12.646c0,0-6.189-1.056-8.881-2.236s-2.794,2.619,1.282,4.922a15.5,15.5,0,0,0,8.661,1.706,20.179,20.179,0,0,1-6.432.65c-2.652-.367,1.709,6.371,8.718,3.093,0,0-1.228.977-2.514,1.883s3.244,3.375,6.424.729c0,0-1.41,1.418-1.448,2.333s3,2.5,5.318.042c0,0-.674,1.734.272,2.236s2.242,1.092,3.522-.923A3.583,3.583,0,0,0,309.147,161.8Z" fill="#f2f2f2"/><path d="M349.854,166.423a7.13,7.13,0,0,0,6.526-3.071c2.381-3.607-1.074-6.168,2.8-8.488s8.4-.492,13.256-.992,7.309-4.757,8.238-4.257.384,9.507-13.8,9.8c0,0,6.268.359,9.156-.188s2.136,3.179-2.352,4.509a15.5,15.5,0,0,1-8.824-.278,20.181,20.181,0,0,0,6.123,2.075c2.667.237-3.093,5.826-9.19,1.059,0,0,.978,1.229,2.028,2.4s-3.918,2.562-6.423-.729c0,0,1.056,1.7.888,2.6s-3.487,1.766-5.193-1.151c0,0,.269,1.841-.766,2.118s-2.43.561-3.226-1.689A3.583,3.583,0,0,1,349.854,166.423Z" fill="#f2f2f2"/><rect width="43.628" height="28.047" transform="translate(308.714 153.825) rotate(6.477)" fill="#ffd34d"/><path d="M328.35,174.251l-18.56-18.965L328,177.348l22.69-17.418Z" fill="#dd9f03"/><path d="M320.384,167.368l-13.41,13.375,14.043-11.934Z" fill="#dd9f03"/><path d="M337.656,169.329l10.071,16.041-11.01-14.779Z" fill="#dd9f03"/></g></g></svg>