<svg xmlns="http://www.w3.org/2000/svg" width="28.693" height="25.5" viewBox="0 0 28.693 25.5"><g transform="translate(0.25 -28.74)"><path d="M27.78,39.9a.413.413,0,0,0-.413.413v6.5h-7.08l-.324-1.719a2.115,2.115,0,0,0-1.073-1.467V40.086c.043-.029.085-.059.125-.092a1.709,1.709,0,0,0,.628-1.157l.029-.279a1.722,1.722,0,0,0-.783-1.627V35.117a4.272,4.272,0,0,0-4.267-4.267H13.558a4.272,4.272,0,0,0-4.267,4.267c0,.019,0,1.865,0,1.9a1.721,1.721,0,0,0-.661,1.542l.029.279a1.709,1.709,0,0,0,.628,1.158L9.3,40v3.625a2.115,2.115,0,0,0-1.071,1.466l-.324,1.719H.826V30.5a.689.689,0,0,1,.688-.688H4.13a.413.413,0,0,0,0-.826H1.514A1.516,1.516,0,0,0,0,30.5V48.375a1.516,1.516,0,0,0,1.514,1.514H12.183L11.8,51.075h-.61a1.968,1.968,0,0,0-1.951,1.951.964.964,0,0,0,.964.964h7.784a.965.965,0,0,0,.964-.964,1.93,1.93,0,0,0-.187-.833A1.956,1.956,0,0,0,17,51.075h-.61l-.381-1.186H26.678a1.516,1.516,0,0,0,1.514-1.514V40.308a.413.413,0,0,0-.413-.413Zm-9.716,3.422-.813-.27-.119-.32a.734.734,0,0,0-.956-.428l-.085-.682a4.585,4.585,0,0,0,1.089-1.241c.34,0,.52.008.884,0v2.945ZM14.984,45.27l-.41-1.186,1.819-.972.293.789Zm-.916-1.852-1.3-.688.094-.66a3.066,3.066,0,0,0,2.457.007l.078.633Zm-.907,1.82-1.654-1.33.282-.76,1.774.937ZM9.808,39.352a.889.889,0,0,1-.327-.6l-.029-.279a.9.9,0,0,1,.8-.983l.35-.037.216,2.059-.35.037A.889.889,0,0,1,9.808,39.352Zm1.842.209L11.413,37.3a6.423,6.423,0,0,0,1.55-.6,4.965,4.965,0,0,0,1.649-1.362,3.41,3.41,0,0,0,2.28,1.934l-.239,2.28H14.509a.413.413,0,1,0,0,.826h1.665A2.7,2.7,0,0,1,14.1,41.5a2.346,2.346,0,0,1-1.3-.4,3.713,3.713,0,0,1-1.164-1.3A.685.685,0,0,0,11.65,39.561Zm7.2-1.089-.029.279a.895.895,0,0,1-.983.8l-.35-.037.216-2.059.35.037a.9.9,0,0,1,.8.983Zm-5.293-6.8h1.064a3.447,3.447,0,0,1,3.243,2.292A4.183,4.183,0,0,0,16.231,32.8a.413.413,0,0,0-.312.765,3.423,3.423,0,0,1,2.127,3.027h-.209a2.6,2.6,0,0,1-2.585-2.013.576.576,0,0,0-.459-.5.57.57,0,0,0-.6.271.413.413,0,0,0-.042.1,3.272,3.272,0,0,1-1.585,1.526,4.975,4.975,0,0,1-2.427.652A3.544,3.544,0,0,1,13.9,33.236a.423.423,0,1,0-.026-.826,4.653,4.653,0,0,0-3.566,1.576,3.447,3.447,0,0,1,3.25-2.311Zm-3.19,8.7c0,.01.535-.046.611-.055a4.638,4.638,0,0,0,1.111,1.285l-.1.719a.727.727,0,0,0-.935.429l-.108.292-.817.27V40.359A1.709,1.709,0,0,0,10.368,40.378Zm7.65,12.168v0a1.11,1.11,0,0,1,.107.479.138.138,0,0,1-.138.138H10.2a.138.138,0,0,1-.138-.138A1.119,1.119,0,0,1,11,51.917c1.309-.042,4.7,0,6-.016a1.127,1.127,0,0,1,1.017.644Zm-2.495-1.47H12.67l.381-1.186h2.091Zm11.156-2.012H1.514a.689.689,0,0,1-.688-.688v-.736h13.16a.413.413,0,1,0,0-.826H8.747l.3-1.566a1.29,1.29,0,0,1,.862-.985l.757-.25a.7.7,0,0,0,.26.486l1.855,1.491a.705.705,0,0,0,1.108-.318l.183-.525.19.549a.712.712,0,0,0,1.118.321l1.893-1.522a.71.71,0,0,0,.262-.484l.759.252a1.29,1.29,0,0,1,.862.985l.3,1.566H15.913a.413.413,0,1,0,0,.826H27.367v.736A.689.689,0,0,1,26.678,49.063Z" fill="#3266fc"/><path d="M1.514,28.74H4.13a.663.663,0,0,1,0,1.326H1.514a.439.439,0,0,0-.438.438V46.563H7.7l.286-1.515a2.354,2.354,0,0,1,1.066-1.563V40.12a1.957,1.957,0,0,1-.64-1.258l-.029-.279A1.958,1.958,0,0,1,9.041,36.9c0-.152,0-.481,0-1.2,0-.3,0-.549,0-.58v-.006A4.523,4.523,0,0,1,13.558,30.6h1.064a4.523,4.523,0,0,1,4.517,4.517V36.8a1.961,1.961,0,0,1,.781,1.784l-.029.279a1.958,1.958,0,0,1-.719,1.326l-.033.026v3.269a2.353,2.353,0,0,1,1.068,1.564l.286,1.515h6.623V40.308a.663.663,0,0,1,1.326,0v8.067a1.766,1.766,0,0,1-1.764,1.764H16.352l.22.686H17a2.208,2.208,0,0,1,1.991,1.262,2.177,2.177,0,0,1,.211.939,1.215,1.215,0,0,1-1.214,1.214H10.2a1.214,1.214,0,0,1-1.214-1.211,2.217,2.217,0,0,1,2.2-2.2h.425l.22-.686H1.514A1.766,1.766,0,0,1-.25,48.375V30.5A1.766,1.766,0,0,1,1.514,28.74Zm2.616.826a.163.163,0,0,0,0-.326H1.514A1.266,1.266,0,0,0,.25,30.5V48.375a1.266,1.266,0,0,0,1.264,1.264H12.526l-.542,1.686h-.8a1.669,1.669,0,0,0-1.212.522,1.647,1.647,0,0,0-.484,1.173v.006a.714.714,0,0,0,.714.714h7.784a.714.714,0,0,0,.714-.714,1.682,1.682,0,0,0-.163-.726A1.706,1.706,0,0,0,17,51.325h-.792l-.542-1.686H26.678a1.266,1.266,0,0,0,1.264-1.264V40.308a.163.163,0,0,0-.326,0v6.755H20.079l-.363-1.922a1.857,1.857,0,0,0-.946-1.294l-.131-.071V39.953l.11-.074c.039-.026.074-.052.108-.079a1.461,1.461,0,0,0,.537-.989l.029-.279a1.466,1.466,0,0,0-.669-1.391l-.115-.074V35.117A4.022,4.022,0,0,0,14.622,31.1H13.558a4.022,4.022,0,0,0-4.017,4.017c0,.022,0,.113,0,.586,0,.493,0,1.234,0,1.3l.007.128-.1.081a1.464,1.464,0,0,0-.565,1.318l.029.279a1.461,1.461,0,0,0,.533.986l.015.012.094.075v3.894l-.131.071a1.858,1.858,0,0,0-.944,1.293l-.363,1.922H.576V30.5a.939.939,0,0,1,.938-.938Zm9.428,1.86h1.064A3.7,3.7,0,0,1,18.1,33.884l-.427.245a3.929,3.929,0,0,0-1.538-1.1.163.163,0,0,0-.123.3A3.689,3.689,0,0,1,18.3,36.567l.023.272-.492,0A2.854,2.854,0,0,1,15,34.613a.329.329,0,0,0-.259-.292.322.322,0,0,0-.334.153.163.163,0,0,0-.017.04,3.454,3.454,0,0,1-1.707,1.68,5.238,5.238,0,0,1-2.552.682l-.264-.006.021-.263a3.8,3.8,0,0,1,4-3.619h.016l.016,0h.016a.2.2,0,0,0,.207-.175.209.209,0,0,0-.195-.16.215.215,0,0,0-.037,0l-.018,0h-.018A4.387,4.387,0,0,0,10.5,34.147l-.428-.242A3.7,3.7,0,0,1,13.558,31.426ZM16.8,32.791a3.192,3.192,0,0,0-2.182-.866H13.558a3.19,3.19,0,0,0-2.2.88,5.48,5.48,0,0,1,2.491-.644.712.712,0,0,1,.1-.008.7.7,0,0,1,.695.65v.018a.7.7,0,0,1-.757.665,3.288,3.288,0,0,0-3.472,2.883,4.932,4.932,0,0,0,2.028-.617,3.019,3.019,0,0,0,1.464-1.373.662.662,0,0,1,.068-.161.818.818,0,0,1,1.518.315,2.34,2.34,0,0,0,2.266,1.8,3.118,3.118,0,0,0-1.94-2.541.663.663,0,1,1,.5-1.228A4.813,4.813,0,0,1,16.8,32.791Zm-2.13,2.033.17.418A3.173,3.173,0,0,0,16.96,37.03l.2.057L16.879,39.8h-2.37a.163.163,0,1,0,0,.326h2.184l-.323.406A2.94,2.94,0,0,1,14.1,41.755a2.592,2.592,0,0,1-1.436-.446,3.975,3.975,0,0,1-1.245-1.383l-.049-.088.025-.1a.437.437,0,0,0,.012-.154l-.26-2.477.213-.051a6.144,6.144,0,0,0,1.49-.58,4.744,4.744,0,0,0,1.566-1.288Zm1.949,2.624A3.722,3.722,0,0,1,14.559,35.8a5.708,5.708,0,0,1-1.476,1.121,6.7,6.7,0,0,1-1.4.571l.215,2.046a.925.925,0,0,1,0,.224,3.428,3.428,0,0,0,1.038,1.132,2.1,2.1,0,0,0,1.162.364,2.255,2.255,0,0,0,1.5-.629h-1.09a.663.663,0,1,1,0-1.326h1.919Zm.859-.272.6.063A1.146,1.146,0,0,1,19.1,38.5l-.029.279A1.145,1.145,0,0,1,17.934,39.8a1.166,1.166,0,0,1-.121-.006l-.6-.063Zm.452,2.125a.645.645,0,0,0,.639-.578l.029-.279a.646.646,0,0,0-.574-.709l-.1-.011-.164,1.561.1.011A.662.662,0,0,0,17.934,39.3Zm-7.113-2.125.268,2.556-.6.063a1.163,1.163,0,0,1-.121.006,1.145,1.145,0,0,1-1.137-1.026L9.2,38.5a1.146,1.146,0,0,1,1.019-1.258Zm-.281,2.111-.164-1.561-.1.011a.646.646,0,0,0-.574.708l.029.279a.645.645,0,0,0,.708.574Zm.571.768.083.139a4.367,4.367,0,0,0,1.05,1.216l.114.089-.167,1.169-.29-.107a.477.477,0,0,0-.614.282l-.15.4-1.26.417V40.071l.285.041a1.454,1.454,0,0,0,.206.016H10.4c.109-.007.468-.043.548-.053Zm.712,1.658a4.859,4.859,0,0,1-.974-1.125c-.166.017-.408.041-.472.041v2.344l.375-.124.066-.179a.976.976,0,0,1,.959-.637Zm6.491-1.6v3.549l-1.256-.417-.16-.433a.484.484,0,0,0-.631-.282l-.3.117-.142-1.142.113-.087a4.327,4.327,0,0,0,1.029-1.174l.072-.118.138,0c.142,0,.256,0,.368,0h.194c.108,0,.209,0,.317,0Zm-.575.513-.406,0h-.014a4.829,4.829,0,0,1-.962,1.1L16.39,42a.983.983,0,0,1,.975.641l.077.207.371.123V40.627ZM12.658,41.71l.3.131a2.816,2.816,0,0,0,2.259.006l.306-.131.14,1.133-1.595.852-1.577-.833Zm1.438.871a3.3,3.3,0,0,1-1.033-.166l-.025.176,1.031.544,1.058-.565-.018-.148A3.305,3.305,0,0,1,14.1,42.581Zm2.433.177.455,1.227-2.119,1.7-.6-1.723Zm-.139,1.063-.13-.352L14.88,44.2l.224.648Zm-4.736-1.026,2.216,1.17-.589,1.69L11.21,43.99Zm1.6,1.412-1.332-.7-.12.324,1.238,1Zm4.057-.531,1.055.35A1.54,1.54,0,0,1,19.4,45.2l.352,1.862H15.913a.163.163,0,1,0,0,.326h11.7v.986a.939.939,0,0,1-.938.938H1.514a.939.939,0,0,1-.938-.938v-.986h13.41a.163.163,0,0,0,0-.326H8.445L8.8,45.2a1.54,1.54,0,0,1,1.029-1.176l1.056-.349.029.313a.452.452,0,0,0,.168.314l1.855,1.491a.462.462,0,0,0,.411.083.456.456,0,0,0,.3-.288l.42-1.206.425,1.23a.462.462,0,0,0,.308.291.468.468,0,0,0,.416-.084L17.111,44.3a.458.458,0,0,0,.17-.314Zm1.832,2.888-.24-1.269a1.04,1.04,0,0,0-.695-.794l-.509-.169a.956.956,0,0,1-.276.358l-1.893,1.522a.961.961,0,0,1-1.467-.328.955.955,0,0,1-1.445.3l-1.855-1.491a.957.957,0,0,1-.275-.36l-.507.168a1.04,1.04,0,0,0-.695.794l-.24,1.269h4.938a.663.663,0,0,1,0,1.326H1.076v.486a.439.439,0,0,0,.438.438H26.678a.439.439,0,0,0,.438-.438v-.486h-11.2a.663.663,0,1,1,0-1.326Zm-6.276,3.076h2.455l.542,1.686H12.327Zm2.091.5H13.233l-.22.686H15.18Zm-1.842,1.507c.567,0,1.168,0,1.736,0l1.409,0c.31,0,.551,0,.736,0a1.379,1.379,0,0,1,1.246.788l0,.007a1.361,1.361,0,0,1,.128.58.388.388,0,0,1-.388.388H10.2a.388.388,0,0,1-.388-.388,1.37,1.37,0,0,1,1.144-1.356l.034,0C11.423,51.653,12.1,51.647,13.117,51.647Zm3.145.507-1.41,0c-.568,0-1.167,0-1.734,0-1,0-1.665.006-2.089.019a.871.871,0,0,0-.7.748h7.545a.857.857,0,0,0-.076-.26l0-.008A.876.876,0,0,0,17,52.151C16.816,52.153,16.573,52.154,16.262,52.154Z" fill="#3266fc"/><path d="M123.534,28.99H102.913a.413.413,0,0,0,0,.826h20.621a.689.689,0,0,1,.688.688v7.817a.413.413,0,1,0,.826,0V30.5A1.516,1.516,0,0,0,123.534,28.99Z" transform="translate(-96.856 0)" fill="#3266fc"/><path d="M102.913,28.74h20.621A1.766,1.766,0,0,1,125.3,30.5v7.817a.663.663,0,1,1-1.326,0V30.5a.439.439,0,0,0-.438-.438H102.913a.663.663,0,0,1,0-1.326Zm21.723,9.744a.163.163,0,0,0,.163-.163V30.5a1.266,1.266,0,0,0-1.264-1.264H102.913a.163.163,0,0,0,0,.326h20.621a.939.939,0,0,1,.938.938v7.817A.163.163,0,0,0,124.636,38.484Z" transform="translate(-96.856 0)" fill="#3266fc"/></g></svg>