<svg xmlns="http://www.w3.org/2000/svg" width="27.362" height="18" viewBox="0 0 27.362 18"><g transform="translate(-4 -13.58)"><path d="M28.919,13.58H6.443A2.446,2.446,0,0,0,4,16.023V29.137A2.446,2.446,0,0,0,6.443,31.58h2.5a.489.489,0,0,0,0-.977h-2.5a1.467,1.467,0,0,1-1.466-1.466v-7H30.385v7A1.467,1.467,0,0,1,28.919,30.6H10.894a.489.489,0,0,0,0,.977H28.919a2.446,2.446,0,0,0,2.443-2.443V16.023a2.446,2.446,0,0,0-2.443-2.443Zm1.466,4.334H26.349a.489.489,0,0,0,0,.977h4.036v2.272H4.977V18.891H24.394a.489.489,0,1,0,0-.977H4.977V16.023a1.467,1.467,0,0,1,1.466-1.466H28.919a1.467,1.467,0,0,1,1.466,1.466Z" transform="translate(0 0)" fill="#707070"/><path d="M42.569,42.134A.734.734,0,0,0,43.3,41.4V39.453a.734.734,0,0,0-.733-.733H32.96a.734.734,0,0,0-.733.733V41.4a.734.734,0,0,0,.733.733ZM33.2,39.7h9.12v1.46H33.2Z" transform="translate(-14.436 -12.856)" fill="#707070"/><path d="M14.007,44.2a.488.488,0,0,0-.489-.489H10.269a.489.489,0,1,0,0,.977h3.249a.488.488,0,0,0,.489-.489Z" transform="translate(-2.956 -15.407)" fill="#707070"/></g></svg>