<svg xmlns="http://www.w3.org/2000/svg" xmlns:xlink="http://www.w3.org/1999/xlink" width="25" height="25" viewBox="0 0 25 25"><defs><clipPath id="a"><path d="M0-682.665H25v25H0Z" transform="translate(0 682.665)" fill="#3266fc"/></clipPath></defs><g transform="translate(0 682.665)"><g transform="translate(0 -682.665)"><g clip-path="url(#a)"><g transform="translate(0.488 0.488)"><path d="M-128.45-374.475a.6.6,0,0,1-.512-.288l-4.056-6.655a5.459,5.459,0,0,1-.914-3.032,5.489,5.489,0,0,1,5.483-5.483,5.489,5.489,0,0,1,5.483,5.483,5.459,5.459,0,0,1-.914,3.032l-4.056,6.655A.6.6,0,0,1-128.45-374.475Zm0-14.258a4.288,4.288,0,0,0-4.283,4.283,4.263,4.263,0,0,0,.719,2.376l.013.021,3.55,5.825,3.55-5.825.013-.021a4.262,4.262,0,0,0,.719-2.376A4.288,4.288,0,0,0-128.45-388.732Z" transform="translate(133.333 389.332)" fill="#3266fc"/></g><g transform="translate(3.418 3.418)"><path d="M-104.713-53.933a2.556,2.556,0,0,1,2.553,2.553,2.556,2.556,0,0,1-2.553,2.553,2.556,2.556,0,0,1-2.553-2.553A2.556,2.556,0,0,1-104.713-53.933Zm0,3.906a1.355,1.355,0,0,0,1.353-1.353,1.355,1.355,0,0,0-1.353-1.353,1.355,1.355,0,0,0-1.353,1.353A1.355,1.355,0,0,0-104.713-50.027Z" transform="translate(106.666 53.333)" fill="#3266fc"/></g><g transform="translate(18.652 22.559)"><path d="M-25.69-.6A1.578,1.578,0,0,1-24.113.977,1.578,1.578,0,0,1-25.69,2.553,1.578,1.578,0,0,1-27.267.977,1.578,1.578,0,0,1-25.69-.6Zm0,1.953a.377.377,0,0,0,.377-.377A.377.377,0,0,0-25.69.6a.377.377,0,0,0-.377.377A.377.377,0,0,0-25.69,1.353Z" transform="translate(26.667 0)" fill="#3266fc"/></g><g transform="translate(14.746 8.594)"><path d="M-128.45-366.768a.6.6,0,0,1-.506-.277l-4.059-6.367a5.459,5.459,0,0,1-.918-3.037,5.489,5.489,0,0,1,5.483-5.483,5.489,5.489,0,0,1,5.483,5.483,5.459,5.459,0,0,1-.918,3.037l-4.059,6.367A.6.6,0,0,1-128.45-366.768Zm0-13.965a4.288,4.288,0,0,0-4.283,4.283,4.263,4.263,0,0,0,.719,2.376l.007.011,3.557,5.579,3.557-5.579.007-.011a4.262,4.262,0,0,0,.719-2.376A4.288,4.288,0,0,0-128.45-380.732Z" transform="translate(133.333 381.332)" fill="#3266fc"/></g><g transform="translate(17.676 11.523)"><path d="M-104.713-53.933a2.556,2.556,0,0,1,2.553,2.553,2.556,2.556,0,0,1-2.553,2.553,2.556,2.556,0,0,1-2.553-2.553A2.556,2.556,0,0,1-104.713-53.933Zm0,3.906a1.355,1.355,0,0,0,1.353-1.353,1.355,1.355,0,0,0-1.353-1.353,1.355,1.355,0,0,0-1.353,1.353A1.355,1.355,0,0,0-104.713-50.027Z" transform="translate(106.666 53.333)" fill="#3266fc"/></g><g transform="translate(4.395 14.746)"><path d="M-52.357-27.267A1.578,1.578,0,0,1-50.78-25.69a1.578,1.578,0,0,1-1.577,1.577,1.578,1.578,0,0,1-1.577-1.577A1.578,1.578,0,0,1-52.357-27.267Zm0,1.953a.377.377,0,0,0,.377-.377.377.377,0,0,0-.377-.377.377.377,0,0,0-.377.377A.377.377,0,0,0-52.357-25.313Z" transform="translate(53.333 26.667)" fill="#3266fc"/></g><g transform="translate(11.279 23.047)"><path d="M-25.69-12.845a.488.488,0,0,1-.488.488.488.488,0,0,1-.488-.488.488.488,0,0,1,.488-.488.488.488,0,0,1,.488.488" transform="translate(26.667 13.333)" fill="#3266fc"/></g><g transform="translate(2.734 15.723)"><path d="M-91.83,8.413h-4.883a2.556,2.556,0,0,1-2.553-2.553,2.556,2.556,0,0,1,2.553-2.553h5.859A1.355,1.355,0,0,0-89.5,1.953,1.355,1.355,0,0,0-90.854.6h-4.2a.6.6,0,0,1-.6-.6.6.6,0,0,1,.6-.6h4.2A2.556,2.556,0,0,1-88.3,1.953a2.556,2.556,0,0,1-2.553,2.553h-5.859a1.355,1.355,0,0,0-1.353,1.353,1.355,1.355,0,0,0,1.353,1.353h4.883a.6.6,0,0,1,.6.6A.6.6,0,0,1-91.83,8.413Z" transform="translate(98.666)" fill="#3266fc"/></g><g transform="translate(13.965 23.535)"><path d="M4.688.6H0A.6.6,0,0,1-.6,0,.6.6,0,0,1,0-.6H4.688a.6.6,0,0,1,.6.6A.6.6,0,0,1,4.688.6Z" fill="#3266fc"/></g></g></g></g></svg>