<svg xmlns="http://www.w3.org/2000/svg" width="22.674" height="25" viewBox="0 0 22.674 25"><g transform="translate(-4.5 -2.5)"><path d="M7.7,10.64a.873.873,0,0,0,.669-.314C8.959,9.616,10.9,7.18,10.9,5.7a3.2,3.2,0,1,0-6.4,0c0,1.483,1.936,3.919,2.529,4.628A.873.873,0,0,0,7.7,10.64Zm0-6.4A1.454,1.454,0,0,1,9.151,5.7,7.416,7.416,0,0,1,7.7,8.355,7.416,7.416,0,0,1,6.244,5.7,1.454,1.454,0,0,1,7.7,4.244Z"/><path d="M35.7,31.5a3.2,3.2,0,0,0-3.2,3.2c0,1.483,1.936,3.919,2.529,4.628a.882.882,0,0,0,.669.314.873.873,0,0,0,.669-.314c.593-.709,2.529-3.145,2.529-4.628A3.2,3.2,0,0,0,35.7,31.5Zm0,5.855A7.416,7.416,0,0,1,34.244,34.7a1.453,1.453,0,0,1,2.907,0A7.416,7.416,0,0,1,35.7,37.355Z" transform="translate(-11.721 -12.14)"/><path d="M20.488,32.453H8.86a2.616,2.616,0,0,1,0-5.233h6.977a4.36,4.36,0,1,0,0-8.721h-6.4a.872.872,0,1,0,0,1.744h6.4a2.616,2.616,0,1,1,0,5.233H8.86a4.36,4.36,0,0,0,0,8.721H20.488a.872.872,0,0,0,0-1.744Z" transform="translate(0 -6.698)"/></g></svg>