<svg xmlns="http://www.w3.org/2000/svg" width="15.709" height="18" viewBox="0 0 15.709 18"><g transform="translate(-4 -2.25)"><g transform="translate(4 2.25)"><path d="M19.155,19.6a.655.655,0,0,0,.655-.655V12.4a.655.655,0,0,0-1.309,0V18.95A.655.655,0,0,0,19.155,19.6Z" transform="translate(-9.009 -5.532)" fill="#484848"/><path d="M12.155,19.6a.655.655,0,0,0,.655-.655V12.4a.655.655,0,0,0-1.309,0V18.95A.655.655,0,0,0,12.155,19.6Z" transform="translate(-6.591 -5.532)" fill="#484848"/><path d="M16.891,3.559a.655.655,0,1,0,0-1.309H11.655a.655.655,0,1,0,0,1.309Z" transform="translate(-6.418 -2.25)" fill="#484848"/><path d="M4.655,5.25a.655.655,0,1,0,0,1.309h.655V18.6a2.687,2.687,0,0,0,2.684,2.684h7.724A2.687,2.687,0,0,0,18.4,18.6V6.559h.655a.655.655,0,0,0,0-1.309H4.655ZM17.091,6.559V18.6a1.374,1.374,0,0,1-1.375,1.375H7.993A1.374,1.374,0,0,1,6.618,18.6V6.559Z" transform="translate(-4 -3.286)" fill="#484848"/></g></g></svg>