<svg xmlns="http://www.w3.org/2000/svg" width="21.005" height="16" viewBox="0 0 21.005 16"><g transform="translate(0 -61)"><g transform="translate(0 61)"><path d="M19.159,61H1.846A1.849,1.849,0,0,0,0,62.846V75.154A1.849,1.849,0,0,0,1.846,77H19.159a1.849,1.849,0,0,0,1.846-1.846V62.846A1.849,1.849,0,0,0,19.159,61ZM18.9,62.231l-8.362,8.362L2.107,62.231ZM1.231,74.9V63.1l5.927,5.877Zm.87.87,5.931-5.931L10.11,71.9a.615.615,0,0,0,.868,0l2.026-2.026,5.9,5.9Zm17.673-.87-5.9-5.9,5.9-5.9Z" transform="translate(0 -61)" fill="#3266fc"/></g></g></svg>