<svg xmlns="http://www.w3.org/2000/svg" width="20" height="16.591" viewBox="0 0 20 16.591"><path d="M31.073,11.777H15.966a.742.742,0,0,0,0,1.483h6.851L15.418,26.1a.741.741,0,0,0-.029.686l2.142,4.562a.742.742,0,0,0,1.153.249l4.835-4.119L28.353,31.6a.743.743,0,0,0,.481.177.743.743,0,0,0,.671-.426l2.144-4.562a.741.741,0,0,0-.029-.686l-7.4-12.841h6.851a.741.741,0,1,0,0-1.483Zm-2.5,18.063L24,25.942a.742.742,0,0,0-.962,0l-4.577,3.9L16.9,26.508l6.623-11.495,6.623,11.494Z" transform="translate(31.777 -15.224) rotate(90)" fill="#5e5e5e"/></svg>