<svg xmlns="http://www.w3.org/2000/svg" width="11.867" height="22" viewBox="0 0 11.867 22"><g transform="translate(-28.4 -10.1)"><path d="M31.7,22.518H28.978c-.441,0-.578-.165-.578-.578V18.608c0-.441.165-.578.578-.578H31.7V15.607a6.116,6.116,0,0,1,.743-3.111A4.569,4.569,0,0,1,34.9,10.458a6.126,6.126,0,0,1,2.12-.358h2.7c.385,0,.551.165.551.551V13.79c0,.385-.165.551-.551.551-.743,0-1.487,0-2.23.028A.994.994,0,0,0,36.357,15.5c-.028.826,0,1.625,0,2.478h3.194c.441,0,.606.165.606.606v3.332c0,.441-.138.578-.606.578H36.357v8.976c0,.468-.138.633-.633.633H32.282c-.413,0-.578-.165-.578-.578v-9Z"/></g></svg>