<svg xmlns="http://www.w3.org/2000/svg" width="55" height="55" viewBox="0 0 55 55">
  <g id="no-money" transform="translate(-1 -1)">
    <path id="Path_2163" data-name="Path 2163" d="M22.7,36.26,18.26,40.7a.887.887,0,0,0,0,1.254l2.661,2.661a.887.887,0,0,0,1.254,0l4.435-4.435a.887.887,0,0,0,0-1.254L23.95,36.26A.887.887,0,0,0,22.7,36.26Zm-1.147,6.47-1.407-1.407,3.181-3.181,1.407,1.407Z" transform="translate(-1.919 -3.952)" fill="#3266fc"/>
    <path id="Path_2164" data-name="Path 2164" d="M39.548,26.871a.887.887,0,0,0,.627-.26l4.436-4.436a.887.887,0,0,0,0-1.254L41.95,18.26a.887.887,0,0,0-1.254,0L36.26,22.7a.887.887,0,0,0,0,1.254l2.661,2.661A.887.887,0,0,0,39.548,26.871Zm1.774-6.73,1.407,1.407L39.548,24.73l-1.407-1.407Z" transform="translate(-3.952 -1.919)" fill="#3266fc"/>
    <path id="Path_2165" data-name="Path 2165" d="M28.5,1A27.5,27.5,0,1,0,56,28.5,27.5,27.5,0,0,0,28.5,1ZM53.019,20.717,36.283,3.981A25.839,25.839,0,0,1,53.019,20.717ZM48.9,28.5a20.192,20.192,0,0,1-3.685,11.7l-5.155-5.154,8.717-8.717A20.609,20.609,0,0,1,48.9,28.5ZM38.809,33.792l-1.254-1.254L48.06,22.03a.887.887,0,0,0,0-1.254L36.224,8.94a.887.887,0,0,0-1.254,0L24.463,19.445l-1.254-1.254L35.6,5.8,51.2,21.4ZM29.148,24.13a4.419,4.419,0,0,1,3.726,3.726ZM28.5,22.29a6.254,6.254,0,0,0-1.085.106l-1.7-1.7L35.6,10.821,46.179,21.4,36.3,31.282l-1.7-1.7a6.154,6.154,0,0,0-6.1-7.295ZM16.8,11.782A20.192,20.192,0,0,1,28.5,8.1a20.607,20.607,0,0,1,2.171.123l-8.717,8.717ZM3.981,36.283,20.717,53.019A25.839,25.839,0,0,1,3.981,36.283ZM8.1,28.5a20.187,20.187,0,0,1,3.686-11.7l5.154,5.154L8.22,30.671A20.607,20.607,0,0,1,8.1,28.5Zm10.094-5.292,1.254,1.254L8.94,34.97a.887.887,0,0,0,0,1.254L20.776,48.06a.887.887,0,0,0,1.254,0L32.537,37.555l1.254,1.254L21.4,51.2,5.8,35.6Zm9.661,9.661a4.419,4.419,0,0,1-3.726-3.726Zm.648,1.84a6.245,6.245,0,0,0,1.085-.106l1.7,1.7L21.4,46.179,10.821,35.6,20.7,25.718l1.7,1.7a6.154,6.154,0,0,0,6.1,7.295ZM40.2,45.218A20.192,20.192,0,0,1,28.5,48.9a20.608,20.608,0,0,1-2.171-.123l8.717-8.717ZM28.5,54.226a25.659,25.659,0,0,1-6.854-.934.866.866,0,0,0,.384-.213l2.723-2.722a22.388,22.388,0,0,0,3.746.321,21.964,21.964,0,0,0,13.6-4.658.887.887,0,0,0,.082-1.331L12.309,14.817a.888.888,0,0,0-1.328.083A21.965,21.965,0,0,0,6.323,28.5a22.3,22.3,0,0,0,.322,3.746L3.921,34.97a.866.866,0,0,0-.213.384A25.712,25.712,0,0,1,35.354,3.708a.866.866,0,0,0-.384.213L32.246,6.644A22.388,22.388,0,0,0,28.5,6.323a21.965,21.965,0,0,0-13.6,4.658.887.887,0,0,0-.083,1.331L44.691,42.183a.887.887,0,0,0,.627.26h.056a.887.887,0,0,0,.645-.341,21.965,21.965,0,0,0,4.658-13.6,22.387,22.387,0,0,0-.321-3.746l2.722-2.723a.866.866,0,0,0,.213-.384A25.712,25.712,0,0,1,28.5,54.226Z" fill="#3266fc"/>
  </g>
</svg>
