<svg xmlns="http://www.w3.org/2000/svg" width="16" height="86.667" viewBox="0 0 16 86.667"><g transform="translate(-767 -409)"><rect width="2" height="55" transform="translate(774 421)" fill="#d1d1d1"/><g transform="translate(-27 16)"><circle cx="8" cy="8" r="8" transform="translate(794 393)" fill="#353638"/><circle cx="3" cy="3" r="3" transform="translate(799 398)" fill="#fff"/></g><g transform="translate(759 474.334)"><path d="M16,0A8.011,8.011,0,0,0,8,8c0,5.743,7.453,12.937,7.77,13.24a.33.33,0,0,0,.46,0c.317-.3,7.77-7.5,7.77-13.24A8.011,8.011,0,0,0,16,0Zm0,11.667A3.667,3.667,0,1,1,19.667,8,3.667,3.667,0,0,1,16,11.667Z" fill="#3266fc"/></g></g></svg>