<svg xmlns="http://www.w3.org/2000/svg" width="16.763" height="20" viewBox="0 0 16.763 20"><g transform="translate(-2.428 0)"><path d="M17.762,16.983a.531.531,0,0,0,.531-.531V9.506a.532.532,0,0,0-1.063,0v1.812A1.128,1.128,0,0,1,16.1,12.445H11.93V9.51a.531.531,0,0,0-1.063,0v2.94h-5.3V9.51a.532.532,0,0,0-1.063,0v6.946a.531.531,0,1,0,1.063,0V13.513h5.3v2.94a.531.531,0,1,0,1.063,0v-2.94H16.1a2.178,2.178,0,0,0,1.129-.322v3.26a.532.532,0,0,0,.531.532Z" transform="translate(-0.693 -2.993)" fill="gray"/><path d="M3.943,1.666V4.593a.541.541,0,0,0,.524.617C4.711,5.21,5,5.08,5,4.461V.6c.053-.391-.382-.779-.731-.507a5.472,5.472,0,0,1-.678.795c-.313.373-1.117.383-1.163.921.121.864,1.148.2,1.515-.141Z" transform="translate(0 0)" fill="gray"/><path d="M13.143,5.073c1.763.82,3.748-1.52,1.85-2.717A1.269,1.269,0,0,0,14.586.123c-.861-.287-2.184.075-2.293,1.1a.453.453,0,0,0,.821.278c.108-.221.19-.537.447-.639A.706.706,0,0,1,14.3.981a.625.625,0,0,1-.529,1.032.815.815,0,0,0-.545.116.421.421,0,0,0,.312.738c.31-.028.7-.084.941.176a.849.849,0,0,1-.209,1.275c-.6.348-1.1-.232-1.245-.782a.389.389,0,0,0-.361-.237c-1.1.173-.183,1.577.476,1.773Z" transform="translate(-3.243 -0.01)" fill="gray"/><path d="M5.6,26.365H3.974c.573-.729,1.521-1.158,1.934-1.9,1.157-2.138-2.3-3.205-3.178-1.319-.1.269-.2.633.022.867a.475.475,0,0,0,.675-.019c.258-.4.318-1.021.935-.985a.673.673,0,0,1,.7.675,1.6,1.6,0,0,1-.807,1.144,12.1,12.1,0,0,0-1.338,1.245c-.417.405-.444,1.245.3,1.23H5.693c.753,0,.628-1.019-.1-.939Z" transform="translate(-0.063 -7.39)" fill="gray"/><path d="M15.657,25.409a1.2,1.2,0,0,0-.517-.077V22.795c0-.543-.317-.659-.584-.659-.292-.007-.457.277-.617.481l-1.788,2.391c-.061.085-.172.22-.225.307a.6.6,0,0,0,.606.918h1.623v.557a.5.5,0,0,0,.841.439c.221-.225.121-.717.141-1a.948.948,0,0,0,.56-.1.441.441,0,0,0-.041-.718Zm-1.5-.073H12.912l1.243-1.675Z" transform="translate(-3.13 -7.379)" fill="gray"/><path d="M25.332,26.558a3.824,3.824,0,0,0-1.123-1.515,1.412,1.412,0,0,0,.335-2.663,10.231,10.231,0,0,0-2.669-.151.6.6,0,0,0-.685.685v3.805a.585.585,0,0,0,.987.511c.282-.235.116-1.668.157-2.026,1.151-.213,1.483,1.18,2.021,1.889.4.65,1.42.193.977-.535Zm-3-2.214V23.122c.575.067,1.825-.278,1.869.6C24.193,24.594,22.895,24.283,22.335,24.344Z" transform="translate(-6.251 -7.406)" fill="gray"/><path d="M23.853,4.339a.85.85,0,0,1-1.227-.469.519.519,0,0,0-.487-.371c-.526.015-.532.639-.29.977a1.985,1.985,0,0,0,2.563.529c1.865-1.079.511-4.083-1.528-3.059l.157-.9c.315-.04,1.742.111,1.968-.125.3-.3.2-.813-.443-.81H22.783A.619.619,0,0,0,22.12.73l-.283,1.616a.508.508,0,0,0,.455.707c.567-.116.887-.78,1.557-.393A1.1,1.1,0,0,1,23.853,4.339Z" transform="translate(-6.423 -0.038)" fill="gray"/></g></svg>