<svg xmlns="http://www.w3.org/2000/svg" width="42" height="42" viewBox="0 0 42 42"><g transform="translate(-1718 -3366)"><circle cx="21" cy="21" r="21" transform="translate(1718 3366)" fill="#fff"/><g transform="translate(1703.551 3347.627)"><path d="M45.133,49.7H33.067c-.257,0-.467-.383-.467-.851s.21-.851.467-.851H45.133c.257,0,.467.383.467.851S45.39,49.7,45.133,49.7Z" transform="translate(-0.426 -8.977)"/><path d="M15.3,48a.851.851,0,1,1-.851.851A.854.854,0,0,1,15.3,48Z" transform="translate(10 -8.977)" fill-rule="evenodd"/><circle cx="0.851" cy="0.851" r="0.851" transform="translate(28.31 39.023)"/><path d="M71.853,47.373a.837.837,0,0,1-.549-.2.855.855,0,0,1-.1-1.2l5.183-6.094-5.183-6.1a.851.851,0,1,1,1.3-1.1l5.652,6.647a.856.856,0,0,1,0,1.1L72.5,47.075a.846.846,0,0,1-.651.3Z" transform="translate(-32.486)"/></g></g></svg>