<svg xmlns="http://www.w3.org/2000/svg" xmlns:xlink="http://www.w3.org/1999/xlink" width="55" height="55" viewBox="0 0 55 55">
  <defs>
    <clipPath id="clip-path">
      <path id="path2152" d="M0-682.665H55v55H0Z" transform="translate(0 682.665)" fill="#3266fc"/>
    </clipPath>
  </defs>
  <g id="g2142" transform="translate(0 682.665)">
    <g id="g2144" transform="translate(38.091 -674.446)">
      <path id="path2146" d="M0,0,5.952,2.738V20.171" fill="none" stroke="#3266fc" stroke-linecap="round" stroke-linejoin="round" stroke-width="2"/>
    </g>
    <g id="g2148" transform="translate(0 -682.665)">
      <g id="g2150" transform="translate(0 0)" clip-path="url(#clip-path)">
        <g id="g2156" transform="translate(1.074 1.074)">
          <path id="path2158" d="M-343.632-550.94a78.8,78.8,0,0,1-8.627,4.575c-20.5-9.461-21.269-17.388-21.484-26.8v-16.165l21.484-9.883,6.748,3.1" transform="translate(373.743 599.217)" fill="none" stroke="#3266fc" stroke-linecap="round" stroke-linejoin="round" stroke-width="2"/>
        </g>
        <g id="g2160" transform="translate(6.23 6.75)">
          <path id="path2162" d="M-372.676-244.158v-13.884L-389-265.553l-16.328,7.511v12.8c.176,7.68.347,13.331,16.328,21.155a67.9,67.9,0,0,0,6.157-3.376" transform="translate(405.332 265.553)" fill="none" stroke="#3266fc" stroke-linecap="round" stroke-linejoin="round" stroke-width="2"/>
        </g>
        <g id="g2164" transform="translate(15.433 20.724)">
          <path id="path2166" d="M-70.352-140.662l-6.165-6.165,3.342-3.342,2.823,2.823,5.641-5.641,3.342,3.342Z" transform="translate(76.517 152.988)" fill="none" stroke="#3266fc" stroke-linecap="round" stroke-linejoin="round" stroke-width="2"/>
        </g>
        <g id="g2168" transform="translate(28.145 28.145)">
          <path id="path2170" d="M-294.218-147.109A12.891,12.891,0,0,0-307.109-160,12.891,12.891,0,0,0-320-147.109a12.891,12.891,0,0,0,12.891,12.891A12.891,12.891,0,0,0-294.218-147.109Z" transform="translate(319.999 160)" fill="none" stroke="#3266fc" stroke-linecap="round" stroke-linejoin="round" stroke-width="2"/>
        </g>
        <g id="g2172" transform="translate(37.407 34.256)">
          <path id="path2174" d="M-71.844-9.883a4.665,4.665,0,0,0-3.858-.7c-2.149.646-2.682,3.587-1.222,4.732a13.859,13.859,0,0,0,3.8,1.8c3.8,1.345,2.4,6.711-1.472,6.737a5.179,5.179,0,0,1-3.543-.954" transform="translate(78.14 10.749)" fill="none" stroke="#3266fc" stroke-linecap="round" stroke-linejoin="round" stroke-width="2"/>
        </g>
        <g id="g2176" transform="translate(41.035 32.417)">
          <path id="path2178" d="M0,0V17.236" fill="none" stroke="#3266fc" stroke-linecap="round" stroke-linejoin="round" stroke-width="2"/>
        </g>
        <g id="g2180" transform="translate(33.699 6.199)">
          <path id="path2182" d="M0,0H0" transform="translate(0 0)" fill="none" stroke="#3266fc" stroke-linecap="round" stroke-linejoin="round" stroke-width="2"/>
        </g>
      </g>
    </g>
  </g>
</svg>
