<svg xmlns="http://www.w3.org/2000/svg" width="50" height="50" viewBox="0 0 50 50"><g transform="translate(-3 -3)"><g transform="translate(4.724 3)"><path d="M53.586,43a.862.862,0,0,0-.862.862V47.31a7.767,7.767,0,0,1-7.759,7.759H36.186a2.579,2.579,0,0,0-2.428-1.724H28.586a2.586,2.586,0,1,0,0,5.172h5.172a2.579,2.579,0,0,0,2.428-1.724h8.779a9.494,9.494,0,0,0,9.483-9.483V43.862A.862.862,0,0,0,53.586,43Z" transform="translate(-7.897 -8.517)" fill="#959595"/><path d="M50.69,28.862A.862.862,0,0,1,49.828,28V26.276a21.552,21.552,0,1,0-43.1,0V28A.862.862,0,0,1,5,28V26.276a23.276,23.276,0,0,1,46.552,0V28A.862.862,0,0,1,50.69,28.862Z" transform="translate(-5 -3)" fill="#959595"/></g><g transform="translate(3 25.414)"><path d="M9.034,42.793H6.448A3.452,3.452,0,0,1,3,39.345v-6.9A3.452,3.452,0,0,1,6.448,29H9.034a.862.862,0,0,1,.862.862V41.931A.862.862,0,0,1,9.034,42.793Z" transform="translate(-3 -29)" fill="#c3e7f4"/><path d="M53,41.931V29.862A.862.862,0,0,1,53.862,29h2.586A3.452,3.452,0,0,1,59.9,32.448v6.9a3.452,3.452,0,0,1-3.448,3.448H53.862A.862.862,0,0,1,53,41.931Z" transform="translate(-9.897 -29)" fill="#c3e7f4"/></g><g transform="translate(8.172 22.828)"><path d="M14.172,44.966H12.448A3.452,3.452,0,0,1,9,41.517V29.448A3.452,3.452,0,0,1,12.448,26h1.724a3.452,3.452,0,0,1,3.448,3.448V41.517A3.452,3.452,0,0,1,14.172,44.966Z" transform="translate(-9 -26)" fill="#3266fc"/><path d="M45,41.517V29.448A3.452,3.452,0,0,1,48.448,26h1.724a3.452,3.452,0,0,1,3.448,3.448V41.517a3.452,3.452,0,0,1-3.448,3.448H48.448A3.452,3.452,0,0,1,45,41.517Z" transform="translate(-13.966 -26)" fill="#3266fc"/></g><g transform="translate(11.621 24.552)"><path d="M13.862,36.31A.862.862,0,0,1,13,35.448V32.862a.862.862,0,0,1,1.724,0v2.586A.862.862,0,0,1,13.862,36.31Z" transform="translate(-13 -28.552)" fill="#90cfee"/><path d="M49.862,45.034A.862.862,0,0,1,49,44.172v-4.31a.862.862,0,0,1,1.724,0v4.31A.862.862,0,0,1,49.862,45.034Z" transform="translate(-17.966 -29.517)" fill="#cbcbcb"/><circle cx="0.862" cy="0.862" r="0.862" fill="#90cfee"/></g></g></svg>