<svg xmlns="http://www.w3.org/2000/svg" width="26.667" height="20" viewBox="0 0 26.667 20"><path d="M16.644,26.224l1.515-1.515a4.982,4.982,0,0,1-6.115,6.115l1.515-1.515a3.319,3.319,0,0,0,3.086-3.086Zm9.918-.629a17.453,17.453,0,0,0-4.4-4.89l-1.213,1.213A16.678,16.678,0,0,1,24.853,26c-.988,1.5-4.862,6.665-11.52,6.665a12.245,12.245,0,0,1-2.8-.331L9.164,33.7a14.116,14.116,0,0,0,4.17.629c8.724,0,13.049-7.6,13.228-7.929a.833.833,0,0,0,0-.81Zm-3.472-8.173L4.756,35.756a.833.833,0,0,1-1.178-1.178L5.91,32.245a17.486,17.486,0,0,1-5.8-5.84.833.833,0,0,1,0-.81c.18-.323,4.5-7.928,13.228-7.928a14.033,14.033,0,0,1,5.88,1.275l2.7-2.7a.833.833,0,0,1,1.178,1.178ZM7.153,31l2.11-2.11a4.992,4.992,0,0,1,6.963-6.964l1.706-1.706a12.27,12.27,0,0,0-4.6-.89C6.676,19.333,2.8,24.495,1.814,26a16.362,16.362,0,0,0,5.339,5Zm3.32-3.32,4.544-4.544a3.3,3.3,0,0,0-1.682-.472A3.337,3.337,0,0,0,10,26a3.3,3.3,0,0,0,.472,1.682Z" transform="translate(0 -16)" fill="#787878"/></svg>