<svg xmlns="http://www.w3.org/2000/svg" width="15.349" height="22" viewBox="0 0 15.349 22"><g transform="translate(-4.5 -1.25)"><path d="M12.076,5.25A3.326,3.326,0,1,0,15.4,8.576,3.327,3.327,0,0,0,12.076,5.25Zm0,1.535a1.791,1.791,0,1,1-1.791,1.791A1.791,1.791,0,0,1,12.076,6.785Z" transform="translate(0.099 0.093)" fill="#989898" fill-rule="evenodd"/><path d="M12.174,1.25A7.679,7.679,0,0,0,4.5,8.924a11.69,11.69,0,0,0,1.794,5.758,26.927,26.927,0,0,0,4.673,5.7l.007.006a1.78,1.78,0,0,0,2.4,0l.006-.005a26.894,26.894,0,0,0,4.674-5.7,11.69,11.69,0,0,0,1.794-5.758A7.679,7.679,0,0,0,12.174,1.25Zm0,1.535a6.143,6.143,0,0,1,6.14,6.14,10.137,10.137,0,0,1-1.584,4.983,25.194,25.194,0,0,1-4.392,5.352.246.246,0,0,1-.324,0,25.242,25.242,0,0,1-4.395-5.356A10.137,10.137,0,0,1,6.035,8.924,6.143,6.143,0,0,1,12.174,2.785Z" transform="translate(0)" fill="#989898" fill-rule="evenodd"/><path d="M6.017,22.785H18.3a.767.767,0,0,0,0-1.535H6.017a.767.767,0,1,0,0,1.535Z" transform="translate(0.017 0.465)" fill="#989898" fill-rule="evenodd"/></g></svg>