<svg xmlns="http://www.w3.org/2000/svg" width="20" height="20" viewBox="0 0 20 20"><path d="M10,0A10,10,0,1,0,20,10,9.994,9.994,0,0,0,10,0Zm0,18.6A8.6,8.6,0,1,1,18.6,10,8.614,8.614,0,0,1,10,18.6Z" fill="#3266fc"/><g transform="translate(8.987 8.336)"><path d="M231.073,213.4c-.592,0-1.014.25-1.014.619v5.015c0,.316.421.632,1.014.632.566,0,1.027-.316,1.027-.632v-5.015C232.1,213.647,231.639,213.4,231.073,213.4Z" transform="translate(-230.059 -213.397)" fill="#3266fc"/></g><g transform="translate(8.921 5.242)"><path d="M229.454,134.208a.949.949,0,1,0,1.066.935A1.02,1.02,0,0,0,229.454,134.208Z" transform="translate(-228.375 -134.208)" fill="#3266fc"/></g></svg>