<svg xmlns="http://www.w3.org/2000/svg" xmlns:xlink="http://www.w3.org/1999/xlink" width="22" height="22" viewBox="0 0 22 22"><defs><clipPath id="a"><path d="M0-682.665H22v22H0Z" transform="translate(0 682.665)"/></clipPath></defs><g transform="translate(0 682.665)"><g transform="translate(0 -682.665)"><g clip-path="url(#a)"><g transform="translate(0.86 0.859)"><path d="M-619.378-315.666h.426c1.651,0,3.176.044,4.665.134a6.645,6.645,0,0,1,3.831,1.451,6.157,6.157,0,0,1,2.07,3.34,14.579,14.579,0,0,1,.336,3.488c.011.8.023,1.753.025,2.724s-.014,1.927-.025,2.729a14.577,14.577,0,0,1-.336,3.488,6.157,6.157,0,0,1-2.07,3.34,6.645,6.645,0,0,1-3.831,1.451c-1.488.09-3.013.135-4.663.135h-.429c-1.65,0-3.175-.044-4.663-.135a6.645,6.645,0,0,1-3.831-1.451,6.157,6.157,0,0,1-2.07-3.34,14.577,14.577,0,0,1-.336-3.488c-.011-.812-.023-1.77-.025-2.724s.014-1.917.025-2.729a14.575,14.575,0,0,1,.336-3.488,6.156,6.156,0,0,1,2.07-3.34,6.646,6.646,0,0,1,3.831-1.451C-622.555-315.622-621.029-315.666-619.378-315.666Zm.215,2h-.215c-1.61,0-3.1.043-4.544.131a4.6,4.6,0,0,0-2.688,1,4.2,4.2,0,0,0-1.4,2.285,13.054,13.054,0,0,0-.275,3.021c-.011.806-.022,1.757-.025,2.7s.014,1.891.025,2.7a13.056,13.056,0,0,0,.274,3.021,4.2,4.2,0,0,0,1.4,2.285,4.6,4.6,0,0,0,2.688,1c1.447.088,2.933.131,4.542.131h.429c1.609,0,3.095-.043,4.542-.131a4.6,4.6,0,0,0,2.688-1,4.2,4.2,0,0,0,1.4-2.284,13.057,13.057,0,0,0,.275-3.021c.011-.8.022-1.741.025-2.7s-.014-1.9-.025-2.7a13.059,13.059,0,0,0-.274-3.021,4.2,4.2,0,0,0-1.4-2.285,4.6,4.6,0,0,0-2.688-1c-1.448-.088-2.934-.131-4.543-.131Z" transform="translate(629.305 314.666)"/></g><g transform="translate(6.445 6.488)"><path d="M-275.488-141a5.518,5.518,0,0,1,5.512,5.512,5.518,5.518,0,0,1-5.512,5.512A5.518,5.518,0,0,1-281-135.488,5.518,5.518,0,0,1-275.488-141Zm0,9.023a3.516,3.516,0,0,0,3.512-3.512A3.516,3.516,0,0,0-275.488-139,3.516,3.516,0,0,0-279-135.488,3.516,3.516,0,0,0-275.488-131.976Z" transform="translate(279.999 140)"/></g><g transform="translate(15.641 3.91)"><path d="M-77.422-38.711a1.289,1.289,0,0,1-1.289,1.289A1.289,1.289,0,0,1-80-38.711,1.289,1.289,0,0,1-78.711-40a1.289,1.289,0,0,1,1.289,1.289" transform="translate(80 40)"/></g></g></g></g></svg>