<svg xmlns="http://www.w3.org/2000/svg" width="38" height="38" viewBox="0 0 38 38"><g transform="translate(-1659 -578)"><rect width="38" height="38" rx="11" transform="translate(1659 578)" fill="#fff"/><path d="M11,1A10.011,10.011,0,0,0,1,11V27A10.011,10.011,0,0,0,11,37H27A10.011,10.011,0,0,0,37,27V11A10.011,10.011,0,0,0,27,1H11m0-1H27A11,11,0,0,1,38,11V27A11,11,0,0,1,27,38H11A11,11,0,0,1,0,27V11A11,11,0,0,1,11,0Z" transform="translate(1659 578)" fill="#e8e8e8"/><g transform="translate(1685.479 586.892) rotate(90)"><path d="M.652,71.288A.652.652,0,0,1,0,70.635,4.571,4.571,0,0,1,4.565,66.07H15.652a.652.652,0,1,1,0,1.3H4.565A3.265,3.265,0,0,0,1.3,70.636a.652.652,0,0,1-.652.652Zm0,0" transform="translate(0 -63.461)" fill="#aeaeae"/><path d="M380.524,6.522a.652.652,0,0,1-.652-.652V.653A.652.652,0,0,1,380.885.11L384.8,2.719a.652.652,0,0,1,0,1.085l-3.913,2.609a.651.651,0,0,1-.362.11Zm.652-4.651V4.652l2.085-1.39Zm0,0" transform="translate(-364.872 0)" fill="#aeaeae"/><path d="M110.837,186.9H99.751a.652.652,0,0,1,0-1.3h11.087a3.265,3.265,0,0,0,3.261-3.261.652.652,0,1,1,1.3,0A4.571,4.571,0,0,1,110.837,186.9Zm0,0" transform="translate(-95.186 -174.506)" fill="#aeaeae"/><path d="M4.565,221.239a.652.652,0,0,1-.362-.109L.29,218.521a.652.652,0,0,1,0-1.085L4.2,214.827a.652.652,0,0,1,1.014.543v5.217a.652.652,0,0,1-.652.652Zm-2.737-3.261,2.085,1.39v-2.781Zm0,0" transform="translate(0 -206.239)" fill="#aeaeae"/></g></g></svg>