<svg xmlns="http://www.w3.org/2000/svg" width="19.861" height="10.999" viewBox="0 0 19.861 10.999"><g transform="translate(0.499 0.499)"><path d="M17.168,134.75a1.071,1.071,0,0,1-1.07-1.07v-1.207H7.5a.5.5,0,0,1,0-1h9.1a.5.5,0,0,1,.5.5v1.707a.069.069,0,0,0,.118.049l4.43-4.43a.069.069,0,0,0,0-.1l-4.43-4.43a.069.069,0,0,0-.118.049v1.707a.5.5,0,0,1-.5.5H14.321a.5.5,0,1,1,0-1H16.1v-1.207a1.069,1.069,0,0,1,1.825-.756l4.43,4.43a1.069,1.069,0,0,1,0,1.512l-4.43,4.43A1.066,1.066,0,0,1,17.168,134.75Z" transform="translate(-3.304 -124.25)" fill="#3266fc"/><path d="M247.284,190.2H244.8a1.069,1.069,0,0,1-.756-1.825l1.4-1.4-1.4-1.4a1.069,1.069,0,0,1,.756-1.825H254.1a.5.5,0,0,1,0,1H244.8a.069.069,0,0,0-.049.118l1.751,1.751a.5.5,0,0,1,0,.707l-1.751,1.751a.069.069,0,0,0,.049.118h2.487a.5.5,0,0,1,0,1Z" transform="translate(-244.226 -181.973)" fill="#3266fc"/></g></svg>