<svg xmlns="http://www.w3.org/2000/svg" width="20" height="20" viewBox="0 0 20 20"><g transform="translate(-10 -10)"><path d="M51.225,48.975V41.65c0-3.6-.775-6.35-4.975-6.35a4.341,4.341,0,0,0-3.925,2.15h-.05V35.625H38.3v13.35h4.15V42.35c0-1.75.325-3.425,2.475-3.425,2.125,0,2.15,1.975,2.15,3.525v6.5h4.15Z" transform="translate(-21.225 -18.975)"/><path d="M11.3,36.6h4.15V49.95H11.3Z" transform="translate(-0.975 -19.95)"/><path d="M12.4,10a2.413,2.413,0,1,0,2.4,2.4A2.4,2.4,0,0,0,12.4,10Z"/></g></svg>