<svg xmlns="http://www.w3.org/2000/svg" width="16.918" height="20" viewBox="0 0 16.918 20"><g transform="translate(-39.451)"><g transform="translate(39.451)"><g transform="translate(0)"><path d="M53.891,2.478a8.459,8.459,0,0,0-14.44,5.981c0,4.571,4.322,8.373,6.644,10.415.323.284.6.529.823.736a1.458,1.458,0,0,0,1.984,0c.222-.207.5-.452.823-.736,2.322-2.042,6.644-5.844,6.644-10.415A8.4,8.4,0,0,0,53.891,2.478Zm-4.94,15.517c-.33.29-.614.541-.849.76a.283.283,0,0,1-.385,0c-.235-.219-.519-.47-.849-.76-2.183-1.92-6.246-5.494-6.246-9.535a7.287,7.287,0,0,1,14.575,0C55.2,12.5,51.134,16.074,48.952,17.994Z" transform="translate(-39.451)" fill="#989898"/></g></g><g transform="translate(44.182 4.412)"><g transform="translate(0)"><path d="M164.3,112.938a3.728,3.728,0,1,0,3.728,3.728A3.732,3.732,0,0,0,164.3,112.938Zm0,6.284a2.556,2.556,0,1,1,2.556-2.556A2.559,2.559,0,0,1,164.3,119.222Z" transform="translate(-160.57 -112.938)" fill="#989898"/></g></g></g></svg>