<svg xmlns="http://www.w3.org/2000/svg" width="24.1" height="25" viewBox="0 0 24.1 25"><g transform="translate(-2.509 -2)"><path d="M26.608,4.679V24.321A2.682,2.682,0,0,1,23.929,27H11.876A2.682,2.682,0,0,1,9.2,24.321v-6.25a.893.893,0,0,1,1.786,0v6.25a.893.893,0,0,0,.893.893H23.929a.893.893,0,0,0,.893-.893V4.679a.893.893,0,0,0-.893-.893H11.876a.893.893,0,0,0-.893.893v6.25a.893.893,0,0,1-1.786,0V4.679A2.682,2.682,0,0,1,11.876,2H23.929A2.682,2.682,0,0,1,26.608,4.679ZM5.742,15.393H16.787a.893.893,0,0,0,0-1.786H5.742L8,11.6c.877-.754-.332-2.121-1.186-1.334L2.8,13.833a.907.907,0,0,0,0,1.334c.325.179,4.236,4.061,4.611,3.8A.9.9,0,0,0,8,17.4Z"/></g></svg>