<svg xmlns="http://www.w3.org/2000/svg" width="23.243" height="20" viewBox="0 0 23.243 20"><g transform="translate(-1.25 -2.75)"><path d="M18.277,22.75H7.466c-3.946,0-6.216-2.27-6.216-6.216V8.966C1.25,5.02,3.52,2.75,7.466,2.75H18.277c3.946,0,6.216,2.27,6.216,6.216v7.568C24.493,20.48,22.223,22.75,18.277,22.75ZM7.466,4.372c-3.092,0-4.595,1.5-4.595,4.595v7.568c0,3.092,1.5,4.595,4.595,4.595H18.277c3.092,0,4.595-1.5,4.595-4.595V8.966c0-3.092-1.5-4.595-4.595-4.595Z" transform="translate(0)"/><path d="M12.465,13.245a4.019,4.019,0,0,1-2.53-.854l-3.384-2.7A.808.808,0,1,1,7.557,8.423l3.384,2.7a2.58,2.58,0,0,0,3.038,0l3.384-2.7a.808.808,0,1,1,1.005,1.265l-3.384,2.7a3.967,3.967,0,0,1-2.519.854Z" transform="translate(0.405 0.445)" fill="#7c868c"/></g></svg>