<svg xmlns="http://www.w3.org/2000/svg" width="35" height="35" viewBox="0 0 35 35"><g transform="translate(-1414 -269)"><path d="M28.734,34.4a105.906,105.906,0,0,1-22.47,0A6.377,6.377,0,0,1,.592,28.734a105.9,105.9,0,0,1,0-22.47A6.377,6.377,0,0,1,6.256.592a105.906,105.906,0,0,1,22.47,0A6.377,6.377,0,0,1,34.4,6.256a105.906,105.906,0,0,1,0,22.47A6.377,6.377,0,0,1,28.734,34.4Z" transform="translate(1414.006 269.005)" fill="#3266fc"/><g transform="translate(1422 218)"><g transform="translate(0 61)"><path d="M17.33,61H1.67A1.673,1.673,0,0,0,0,62.67V73.8a1.673,1.673,0,0,0,1.67,1.67H17.33A1.673,1.673,0,0,0,19,73.8V62.67A1.673,1.673,0,0,0,17.33,61ZM17.1,62.113,9.535,69.677l-7.63-7.564ZM1.113,73.572V62.9l5.362,5.316Zm.787.787,5.365-5.365,1.88,1.864a.557.557,0,0,0,.785,0l1.833-1.833L17.1,74.359Zm15.986-.787-5.336-5.336L17.887,62.9Z" transform="translate(0 -61)" fill="#fff"/></g></g></g></svg>