<svg xmlns="http://www.w3.org/2000/svg" width="44" height="44" viewBox="0 0 44 44"><g transform="translate(-1825.999 -448)"><rect width="44" height="44" rx="22" transform="translate(1825.999 448)" fill="#fff"/><path d="M22,1a21.006,21.006,0,0,0-8.174,40.35A21.006,21.006,0,0,0,30.174,2.65,20.868,20.868,0,0,0,22,1m0-1A22,22,0,1,1,0,22,22,22,0,0,1,22,0Z" transform="translate(1825.999 448)" fill="red"/><g transform="translate(1762.999 458)"><path d="M196.977,473.953h3.906a.977.977,0,0,0,0-1.953h-3.906a.977.977,0,0,0,0,1.953Z" transform="translate(-114.141 -448.953)"/><path d="M84.789,0a.977.977,0,0,0-.977.977V2.023a6.846,6.846,0,0,0-5.859,6.766v6a.877.877,0,0,1-.386.779,2.929,2.929,0,0,0,1.362,5.522H90.648a2.929,2.929,0,0,0,1.362-5.522.877.877,0,0,1-.386-.779v-6a6.846,6.846,0,0,0-5.859-6.766V.977A.977.977,0,0,0,84.789,0Zm4.883,8.789v6A2.79,2.79,0,0,0,91.1,17.3a.976.976,0,0,1-.45,1.842H78.93a.976.976,0,0,1-.45-1.842,2.79,2.79,0,0,0,1.427-2.506v-6a4.883,4.883,0,1,1,9.766,0Z"/></g></g></svg>