<svg xmlns="http://www.w3.org/2000/svg" width="18.49" height="23" viewBox="0 0 18.49 23"><g transform="translate(-1.191 -2.75)"><path d="M14.554,25.75H6.436c-3.292,0-5.186-1.894-5.186-5.186V7.936c0-3.292,1.894-5.186,5.186-5.186h8.118c3.292,0,5.186,1.894,5.186,5.186V20.564C19.74,23.856,17.846,25.75,14.554,25.75ZM6.436,4.1C3.857,4.1,2.6,5.357,2.6,7.936V20.564c0,2.58,1.254,3.833,3.833,3.833h8.118c2.58,0,3.833-1.254,3.833-3.833V7.936c0-2.58-1.254-3.833-3.833-3.833Z" transform="translate(-0.059)"/><circle cx="2.706" cy="2.706" r="2.706" transform="translate(7.505 17.016)" fill="rgba(255,255,255,0)"/><path d="M2.706,1.2A1.506,1.506,0,1,0,4.212,2.706,1.508,1.508,0,0,0,2.706,1.2m0-1.2A2.706,2.706,0,1,1,0,2.706,2.706,2.706,0,0,1,2.706,0Z" transform="translate(7.505 17.016)" fill="#7c868c"/><rect width="5.412" height="1.353" rx="0.676" transform="translate(7.505 6.193)" fill="#7c868c"/></g></svg>