<svg xmlns="http://www.w3.org/2000/svg" width="53.37" height="55" viewBox="0 0 53.37 55">
  <g id="Business-Management-Operation-Smartphone-Hand" transform="translate(-1.293 -2)">
    <path id="Path_2152" data-name="Path 2152" d="M20,6h1.818V7.818H20Z" transform="translate(-1.701 -0.364)" fill="#3266fc"/>
    <path id="Path_2153" data-name="Path 2153" d="M24,6h7.273V7.818H24Z" transform="translate(-2.064 -0.364)" fill="#3266fc"/>
    <path id="Path_2154" data-name="Path 2154" d="M29.364,42H25.727a2.727,2.727,0,0,0,0,5.455h3.636a2.727,2.727,0,0,0,0-5.455Zm0,3.636H25.727a.909.909,0,1,1,0-1.818h3.636a.909.909,0,1,1,0,1.818Z" transform="translate(-1.973 -3.636)" fill="#3266fc"/>
    <path id="Path_2155" data-name="Path 2155" d="M3.754,26.636H5.572V16.1l1.175,1.175,1.285-1.285L5.306,13.266a.909.909,0,0,0-1.285,0L1.293,15.994l1.285,1.285L3.754,16.1Z" transform="translate(0 -1)" fill="#3266fc"/>
    <path id="Path_2156" data-name="Path 2156" d="M49.754,16.1V26.636h1.818V16.1l1.175,1.175,1.285-1.285-2.727-2.727a.909.909,0,0,0-1.285,0l-2.727,2.727,1.285,1.285Z" transform="translate(-4.182 -1)" fill="#3266fc"/>
    <path id="Path_2157" data-name="Path 2157" d="M51.273,42a3.582,3.582,0,0,0-2.336.855,3.647,3.647,0,0,0-3.118-1.764,3.582,3.582,0,0,0-2.336.855A3.623,3.623,0,0,0,41.273,40.3V8.364A6.371,6.371,0,0,0,34.909,2H16.727a6.371,6.371,0,0,0-6.364,6.364V25a2.751,2.751,0,0,0-1.318,1.309L4.918,35.264A10.077,10.077,0,0,0,4,39.445v17.1H5.818v-17.1a8.216,8.216,0,0,1,.755-3.418L10.364,27.8V41.091a6.293,6.293,0,0,0,.391,2.173l-.9,1.555,1.573.909,5.455-9.445a1.818,1.818,0,0,1,1.1-.855,1.873,1.873,0,0,1,1.382.182,1.826,1.826,0,0,1,.664,2.491l-4.091,7.082a.937.937,0,0,0,.009.927l1.945,3.236a4.534,4.534,0,0,1,.655,2.336v4.855h1.818V51.682a6.387,6.387,0,0,0-.909-3.273l-.573-.955h5.609a3.666,3.666,0,0,0,.364,2.764L28.773,57l1.573-.909-3.918-6.782a1.818,1.818,0,0,1,2.045-2.673,1.765,1.765,0,0,1,1.1.855l1.818,3.145a.929.929,0,0,0,1.027.427.909.909,0,0,0,.673-.882V32.909a1.818,1.818,0,0,1,3.636,0V47.455a.909.909,0,0,0,1.818,0V43.818a1.818,1.818,0,0,1,3.636,0v3.636a.909.909,0,0,0,1.818,0V44.727a1.818,1.818,0,0,1,3.636,0v2.727a.909.909,0,0,0,1.818,0V45.636a1.818,1.818,0,1,1,3.636,0V56.545h1.818V45.636A3.636,3.636,0,0,0,51.273,42ZM39.455,40.3a3.613,3.613,0,0,0-.909.373V32.909a3.636,3.636,0,0,0-7.273,0V45.636h-.918a3.713,3.713,0,0,0-1.409-.755,3.671,3.671,0,0,0-2.764.364,3.862,3.862,0,0,0-.536.391H17.791l-.009-.009,3.827-6.618a3.637,3.637,0,0,0-6.3-3.636l-3.127,5.409V8.364a4.545,4.545,0,0,1,4.545-4.545H34.909a4.545,4.545,0,0,1,4.545,4.545Z" transform="translate(-0.246)" fill="#3266fc"/>
    <path id="Path_2158" data-name="Path 2158" d="M26.727,20.727h1.818a.909.909,0,0,1,.909.909h1.818a2.727,2.727,0,0,0-2.727-2.727V18H26.727v.909a2.727,2.727,0,0,0,0,5.455h1.818a.909.909,0,0,1,0,1.818H26.727a.909.909,0,0,1-.909-.909H24A2.727,2.727,0,0,0,26.727,28v.909h1.818V28a2.727,2.727,0,0,0,0-5.455H26.727a.909.909,0,0,1,0-1.818Z" transform="translate(-2.064 -1.455)" fill="#3266fc"/>
    <path id="Path_2159" data-name="Path 2159" d="M27.091,14a9.091,9.091,0,1,0,9.091,9.091A9.091,9.091,0,0,0,27.091,14Zm0,16.364a7.273,7.273,0,1,1,7.273-7.273A7.273,7.273,0,0,1,27.091,30.364Z" transform="translate(-1.519 -1.091)" fill="#3266fc"/>
    <path id="Path_2160" data-name="Path 2160" d="M50,30h1.818v1.818H50Z" transform="translate(-4.428 -2.545)" fill="#3266fc"/>
    <path id="Path_2161" data-name="Path 2161" d="M50,34h1.818v1.818H50Z" transform="translate(-4.428 -2.909)" fill="#3266fc"/>
    <path id="Path_2162" data-name="Path 2162" d="M4,30H5.818v1.818H4Z" transform="translate(-0.246 -2.545)" fill="#3266fc"/>
  </g>
</svg>
