<svg xmlns="http://www.w3.org/2000/svg" width="23.401" height="18" viewBox="0 0 23.401 18"><g transform="translate(0 -52.552)"><g transform="translate(0 52.552)"><path d="M89.266,52.552q.03.747.06,1.493h-.969q.03-.747.06-1.493H86.06l-4.74,18h6.374q.03-.747.06-1.493h2.175q.03.747.06,1.493h6.374l-4.74-18Zm-1,3.729h1.149q.083,2.076.167,4.153H88.1Q88.184,58.358,88.268,56.281Zm-.423,10.541q.083-2.076.167-4.152h1.662q.083,2.076.167,4.153Z" transform="translate(-77.142 -52.552)"/><path d="M297.111,52.552h-.8l6.005,18h2.17Z" transform="translate(-281.083 -52.552)"/><path d="M7.373,52.552,0,70.552H2.17l6.005-18Z" transform="translate(0 -52.552)"/></g></g></svg>