<svg xmlns="http://www.w3.org/2000/svg" width="22" height="16.334" viewBox="0 0 22 16.334"><g transform="translate(0 -55.239)"><g transform="translate(0 55.239)"><path d="M146.7,191.85a.9.9,0,0,0,0-1.8l-4.07-2.994,3.172,3.948A.9.9,0,0,0,146.7,191.85Z" transform="translate(-135.312 -180.298)" fill="#a1a1a1"/><rect width="8.972" height="2.129" transform="translate(6.514 14.205)" fill="#a1a1a1"/><path d="M18.778,58.461a11,11,0,0,0-17.4,13.112H3.431l1.5-.868-.664-1.15L2.337,70.671a9.673,9.673,0,0,1-1.069-4.432c0-.282.013-.562.036-.838l2.306.407L3.841,64.5l-2.333-.411a9.728,9.728,0,0,1,2.654-4.767L5.743,61.2l1.018-.854-1.592-1.9a9.678,9.678,0,0,1,5.168-1.923V59.05h1.328V56.531a9.679,9.679,0,0,1,5.168,1.923l-1.592,1.9,1.017.854,1.58-1.884a9.729,9.729,0,0,1,2.654,4.767l-2.333.411.231,1.308L20.7,65.4c.024.276.036.556.036.838a9.671,9.671,0,0,1-1.069,4.432l-1.934-1.116-.664,1.15,1.5.868h2.056a11.012,11.012,0,0,0-1.846-13.112Z" transform="translate(0 -55.239)" fill="#a1a1a1"/></g></g></svg>