<svg xmlns="http://www.w3.org/2000/svg" width="22.756" height="20" viewBox="0 0 22.756 20"><g transform="translate(0 -31)"><path d="M0,217.115v5.333a2,2,0,0,0,2,2H4V212.516A4.66,4.66,0,0,0,0,217.115Z" transform="translate(0 -173.449)" fill="#a1a1a1"/><path d="M213.667,303.763v.544a.667.667,0,1,1-1.333,0v-.544a1.967,1.967,0,0,0-1.3,2.241l.475-.274a.667.667,0,0,1,.667,1.155l-.469.271a1.96,1.96,0,0,0,2.581,0l-.469-.271a.667.667,0,0,1,.667-1.155l.475.274a1.967,1.967,0,0,0-1.3-2.241Z" transform="translate(-201.622 -260.64)" fill="#a1a1a1"/><path d="M422,212.516v11.933h2a2,2,0,0,0,2-2v-5.333A4.66,4.66,0,0,0,422,212.516Z" transform="translate(-403.244 -173.449)" fill="#a1a1a1"/><path d="M126.044,31c-2.5,0-4.471,3.464-4.649,8H120V51h12.089V39h-1.4C130.515,34.464,128.54,31,126.044,31Zm0,1.333c1.492,0,3.127,2.714,3.3,6.667h-6.6C122.918,35.047,124.552,32.333,126.044,32.333Zm0,16A3.38,3.38,0,0,1,122.711,45a3.333,3.333,0,1,1,3.333,3.333Z" transform="translate(-114.667)" fill="#a1a1a1"/></g></svg>