<svg xmlns="http://www.w3.org/2000/svg" width="18.419" height="24" viewBox="0 0 18.419 24"><g transform="translate(-3.75 -1.25)"><path d="M12.4,20.227h8.93a.838.838,0,0,0,.837-.837V3.2A1.955,1.955,0,0,0,20.215,1.25H6.82A3.068,3.068,0,0,0,3.75,4.32v17.3a.837.837,0,0,0,1.674,0V4.32a1.395,1.395,0,0,1,1.4-1.4h13.4a.278.278,0,0,1,.279.279V18.552H12.4a.837.837,0,1,0,0,1.674Z" transform="translate(0)" fill-rule="evenodd"/><path d="M12.4,16.75H7.1a3.349,3.349,0,0,0,0,6.7H20.215a1.955,1.955,0,0,0,1.953-1.953V19.82a.837.837,0,1,0-1.674,0v1.674a.278.278,0,0,1-.279.279H7.1a1.674,1.674,0,1,1,0-3.349h5.3a.837.837,0,1,0,0-1.674Z" transform="translate(0 1.802)" fill-rule="evenodd"/><path d="M8.587,6.924H16.4a.837.837,0,0,0,0-1.674H8.587a.837.837,0,0,0,0,1.674Z" transform="translate(0.465 0.465)" fill="#7c868c" fill-rule="evenodd"/></g></svg>