<svg xmlns="http://www.w3.org/2000/svg" width="17.43" height="22" viewBox="0 0 17.43 22"><g transform="translate(-0.5)"><path d="M12.356.17A.532.532,0,0,0,11.973,0H3.391A2.9,2.9,0,0,0,.5,2.885V19.114A2.9,2.9,0,0,0,3.391,22H15.039a2.9,2.9,0,0,0,2.891-2.886V6.228a.572.572,0,0,0-.154-.372Zm.154,1.706,3.63,3.81H13.78a1.266,1.266,0,0,1-1.27-1.265Zm2.529,19.061H3.391a1.841,1.841,0,0,1-1.828-1.823V2.885A1.841,1.841,0,0,1,3.391,1.063h8.056V4.421A2.325,2.325,0,0,0,13.78,6.749h3.087V19.114A1.837,1.837,0,0,1,15.039,20.937Zm0,0"/><path d="M98.45,401.934H89.7a.531.531,0,1,0,0,1.063h8.752a.531.531,0,1,0-.005-1.063Zm0,0" transform="translate(-84.862 -384.663)"/><path d="M119.31,174.532l2.189-2.354v5.8a.531.531,0,0,0,1.063,0v-5.8l2.189,2.354a.53.53,0,0,0,.776-.723l-3.114-3.342a.527.527,0,0,0-.776,0l-3.114,3.342a.53.53,0,0,0,.027.749A.542.542,0,0,0,119.31,174.532Zm0,0" transform="translate(-112.816 -162.98)"/></g></svg>