<svg xmlns="http://www.w3.org/2000/svg" xmlns:xlink="http://www.w3.org/1999/xlink" width="1378" height="522" viewBox="0 0 1378 522"><defs><clipPath id="a"><rect width="1378" height="451" fill="none"/></clipPath></defs><g transform="translate(-421 -313)"><path d="M15,0H1363a15,15,0,0,1,15,15V50a0,0,0,0,1,0,0H0a0,0,0,0,1,0,0V15A15,15,0,0,1,15,0Z" transform="translate(421 313)" fill="#f9fafc"/><text transform="translate(441 344)" font-size="14" font-family="DMSans-Medium, DM Sans" font-weight="500"><tspan x="0" y="0">User Name</tspan></text><text transform="translate(726 344)" font-size="14" font-family="DMSans-Medium, DM Sans" font-weight="500"><tspan x="0" y="0">Booking Id</tspan></text><text transform="translate(953 344)" font-size="14" font-family="DMSans-Medium, DM Sans" font-weight="500"><tspan x="0" y="0">Pick UP Place</tspan></text><text transform="translate(1187 343)" font-size="14" font-family="DMSans-Medium, DM Sans" font-weight="500"><tspan x="0" y="0">Drop Place</tspan></text><text transform="translate(1404 343)" font-size="14" font-family="DMSans-Medium, DM Sans" font-weight="500"><tspan x="0" y="0">Booking Date</tspan></text><text transform="translate(1654 343)" font-size="14" font-family="DMSans-Medium, DM Sans" font-weight="500"><tspan x="0" y="0">Invoice</tspan></text><g transform="translate(421 384)" clip-path="url(#a)"><g transform="translate(-421 -384)"><text transform="translate(441 409)" font-size="14" font-family="DMSans-Regular, DM Sans"><tspan x="0" y="0">Lorem ipsum dolor sit amet, </tspan></text><text transform="translate(711 409)" font-size="14" font-family="DMSans-Regular, DM Sans"><tspan x="0" y="0">#12345678900</tspan></text><text transform="translate(1187 409)" font-size="14" font-family="DMSans-Regular, DM Sans"><tspan x="0" y="0">Dec 1, 2022</tspan></text><text transform="translate(1404 409)" font-size="14" font-family="DMSans-Regular, DM Sans"><tspan x="0" y="0">Lincoln Philips</tspan></text><rect width="1378" height="1" transform="translate(421 438)" fill="#e6e7e9"/><g transform="translate(953 393)" fill="#f1f1f1" stroke="#dbdbdb" stroke-width="1"><rect width="87" height="22" rx="11" stroke="none"/><rect x="0.5" y="0.5" width="86" height="21" rx="10.5" fill="none"/></g><text transform="translate(963 408)" font-size="11" font-family="DMSans-Medium, DM Sans" font-weight="500"><tspan x="0" y="0">+6896872415</tspan></text><rect width="128" height="40" rx="8" transform="translate(1652 384)" fill="#3266fc"/><text transform="translate(1716 409)" fill="#fff" font-size="15" font-family="DMSans-Medium, DM Sans" font-weight="500"><tspan x="-35.167" y="0">Download</tspan></text></g><g transform="translate(-421 -309)"><text transform="translate(441 409)" font-size="14" font-family="DMSans-Regular, DM Sans"><tspan x="0" y="0">Lorem ipsum dolor sit amet, </tspan></text><text transform="translate(711 409)" font-size="14" font-family="DMSans-Regular, DM Sans"><tspan x="0" y="0">#12345678900</tspan></text><text transform="translate(1187 409)" font-size="14" font-family="DMSans-Regular, DM Sans"><tspan x="0" y="0">Dec 1, 2022</tspan></text><text transform="translate(1404 409)" font-size="14" font-family="DMSans-Regular, DM Sans"><tspan x="0" y="0">Lincoln Philips</tspan></text><rect width="1378" height="1" transform="translate(421 438)" fill="#e6e7e9"/><g transform="translate(953 393)" fill="#f1f1f1" stroke="#dbdbdb" stroke-width="1"><rect width="87" height="22" rx="11" stroke="none"/><rect x="0.5" y="0.5" width="86" height="21" rx="10.5" fill="none"/></g><text transform="translate(963 408)" font-size="11" font-family="DMSans-Medium, DM Sans" font-weight="500"><tspan x="0" y="0">+6896872415</tspan></text><rect width="128" height="40" rx="8" transform="translate(1652 384)" fill="#3266fc"/><text transform="translate(1716 409)" fill="#fff" font-size="15" font-family="DMSans-Medium, DM Sans" font-weight="500"><tspan x="-35.167" y="0">Download</tspan></text></g><g transform="translate(-421 -234)"><text transform="translate(441 409)" font-size="14" font-family="DMSans-Regular, DM Sans"><tspan x="0" y="0">Lorem ipsum dolor sit amet, </tspan></text><text transform="translate(711 409)" font-size="14" font-family="DMSans-Regular, DM Sans"><tspan x="0" y="0">#12345678900</tspan></text><text transform="translate(1187 409)" font-size="14" font-family="DMSans-Regular, DM Sans"><tspan x="0" y="0">Dec 1, 2022</tspan></text><text transform="translate(1404 409)" font-size="14" font-family="DMSans-Regular, DM Sans"><tspan x="0" y="0">Lincoln Philips</tspan></text><rect width="1378" height="1" transform="translate(421 438)" fill="#e6e7e9"/><g transform="translate(953 393)" fill="#f1f1f1" stroke="#dbdbdb" stroke-width="1"><rect width="87" height="22" rx="11" stroke="none"/><rect x="0.5" y="0.5" width="86" height="21" rx="10.5" fill="none"/></g><text transform="translate(963 408)" font-size="11" font-family="DMSans-Medium, DM Sans" font-weight="500"><tspan x="0" y="0">+6896872415</tspan></text><rect width="128" height="40" rx="8" transform="translate(1652 384)" fill="#3266fc"/><text transform="translate(1716 409)" fill="#fff" font-size="15" font-family="DMSans-Medium, DM Sans" font-weight="500"><tspan x="-35.167" y="0">Download</tspan></text></g><g transform="translate(-421 -159)"><text transform="translate(441 409)" font-size="14" font-family="DMSans-Regular, DM Sans"><tspan x="0" y="0">Lorem ipsum dolor sit amet, </tspan></text><text transform="translate(711 409)" font-size="14" font-family="DMSans-Regular, DM Sans"><tspan x="0" y="0">#12345678900</tspan></text><text transform="translate(1187 409)" font-size="14" font-family="DMSans-Regular, DM Sans"><tspan x="0" y="0">Dec 1, 2022</tspan></text><text transform="translate(1404 409)" font-size="14" font-family="DMSans-Regular, DM Sans"><tspan x="0" y="0">Lincoln Philips</tspan></text><rect width="1378" height="1" transform="translate(421 438)" fill="#e6e7e9"/><g transform="translate(953 393)" fill="#f1f1f1" stroke="#dbdbdb" stroke-width="1"><rect width="87" height="22" rx="11" stroke="none"/><rect x="0.5" y="0.5" width="86" height="21" rx="10.5" fill="none"/></g><text transform="translate(963 408)" font-size="11" font-family="DMSans-Medium, DM Sans" font-weight="500"><tspan x="0" y="0">+6896872415</tspan></text><rect width="128" height="40" rx="8" transform="translate(1652 384)" fill="#3266fc"/><text transform="translate(1716 409)" fill="#fff" font-size="15" font-family="DMSans-Medium, DM Sans" font-weight="500"><tspan x="-35.167" y="0">Download</tspan></text></g><g transform="translate(-421 -84)"><text transform="translate(441 409)" font-size="14" font-family="DMSans-Regular, DM Sans"><tspan x="0" y="0">Lorem ipsum dolor sit amet, </tspan></text><text transform="translate(711 409)" font-size="14" font-family="DMSans-Regular, DM Sans"><tspan x="0" y="0">#12345678900</tspan></text><text transform="translate(1187 409)" font-size="14" font-family="DMSans-Regular, DM Sans"><tspan x="0" y="0">Dec 1, 2022</tspan></text><text transform="translate(1404 409)" font-size="14" font-family="DMSans-Regular, DM Sans"><tspan x="0" y="0">Lincoln Philips</tspan></text><rect width="1378" height="1" transform="translate(421 438)" fill="#e6e7e9"/><g transform="translate(953 393)" fill="#f1f1f1" stroke="#dbdbdb" stroke-width="1"><rect width="87" height="22" rx="11" stroke="none"/><rect x="0.5" y="0.5" width="86" height="21" rx="10.5" fill="none"/></g><text transform="translate(963 408)" font-size="11" font-family="DMSans-Medium, DM Sans" font-weight="500"><tspan x="0" y="0">+6896872415</tspan></text><rect width="128" height="40" rx="8" transform="translate(1652 384)" fill="#3266fc"/><text transform="translate(1716 409)" fill="#fff" font-size="15" font-family="DMSans-Medium, DM Sans" font-weight="500"><tspan x="-35.167" y="0">Download</tspan></text></g><g transform="translate(-421 -9)"><text transform="translate(441 409)" font-size="14" font-family="DMSans-Regular, DM Sans"><tspan x="0" y="0">Lorem ipsum dolor sit amet, </tspan></text><text transform="translate(711 409)" font-size="14" font-family="DMSans-Regular, DM Sans"><tspan x="0" y="0">#12345678900</tspan></text><text transform="translate(1187 409)" font-size="14" font-family="DMSans-Regular, DM Sans"><tspan x="0" y="0">Dec 1, 2022</tspan></text><text transform="translate(1404 409)" font-size="14" font-family="DMSans-Regular, DM Sans"><tspan x="0" y="0">Lincoln Philips</tspan></text><rect width="1378" height="1" transform="translate(421 438)" fill="#e6e7e9"/><g transform="translate(953 393)" fill="#f1f1f1" stroke="#dbdbdb" stroke-width="1"><rect width="87" height="22" rx="11" stroke="none"/><rect x="0.5" y="0.5" width="86" height="21" rx="10.5" fill="none"/></g><text transform="translate(963 408)" font-size="11" font-family="DMSans-Medium, DM Sans" font-weight="500"><tspan x="0" y="0">+6896872415</tspan></text><rect width="128" height="40" rx="8" transform="translate(1652 384)" fill="#3266fc"/><text transform="translate(1716 409)" fill="#fff" font-size="15" font-family="DMSans-Medium, DM Sans" font-weight="500"><tspan x="-35.167" y="0">Download</tspan></text></g><g transform="translate(-421 66)"><text transform="translate(441 409)" font-size="14" font-family="DMSans-Regular, DM Sans"><tspan x="0" y="0">Lorem ipsum dolor sit amet, </tspan></text><text transform="translate(711 409)" font-size="14" font-family="DMSans-Regular, DM Sans"><tspan x="0" y="0">#12345678900</tspan></text><text transform="translate(1187 409)" font-size="14" font-family="DMSans-Regular, DM Sans"><tspan x="0" y="0">Dec 1, 2022</tspan></text><text transform="translate(1404 409)" font-size="14" font-family="DMSans-Regular, DM Sans"><tspan x="0" y="0">Lincoln Philips</tspan></text><rect width="1378" height="1" transform="translate(421 438)" fill="#e6e7e9"/><g transform="translate(953 393)" fill="#f1f1f1" stroke="#dbdbdb" stroke-width="1"><rect width="87" height="22" rx="11" stroke="none"/><rect x="0.5" y="0.5" width="86" height="21" rx="10.5" fill="none"/></g><text transform="translate(963 408)" font-size="11" font-family="DMSans-Medium, DM Sans" font-weight="500"><tspan x="0" y="0">+6896872415</tspan></text><rect width="128" height="40" rx="8" transform="translate(1652 384)" fill="#3266fc"/><text transform="translate(1716 409)" fill="#fff" font-size="15" font-family="DMSans-Medium, DM Sans" font-weight="500"><tspan x="-35.167" y="0">Download</tspan></text></g></g></g></svg>