<svg xmlns="http://www.w3.org/2000/svg" width="16.102" height="27.839" viewBox="0 0 16.102 27.839"><g transform="translate(-103.984 25.751) rotate(-89)"><g transform="translate(8.184 112.928)"><g transform="translate(0 0)"><rect width="0.744" height="1.488" fill="#989898"/></g></g><g transform="translate(8.184 115.16)"><g transform="translate(0 0)"><rect width="0.744" height="0.744" fill="#989898"/></g></g><g transform="translate(8.184 116.647)"><g transform="translate(0 0)"><rect width="0.744" height="1.488" fill="#989898"/></g></g><g transform="translate(8.184 111.44)"><g transform="translate(0 0)"><rect width="0.744" height="0.744" fill="#989898"/></g></g><g transform="translate(8.184 109.208)"><g transform="translate(0 0)"><rect width="0.744" height="1.488" transform="translate(0 0)" fill="#989898"/></g></g><g transform="translate(8.184 107.72)"><g transform="translate(0 0)"><rect width="0.744" height="0.744" fill="#989898"/></g></g><g transform="translate(8.184 105.488)"><g transform="translate(0 0)"><rect width="0.744" height="1.488" fill="#989898"/></g></g><g transform="translate(1.488 105.488)"><g transform="translate(0 0)"><rect width="1.488" height="1.488" fill="#989898"/></g></g><g transform="translate(24.55 105.488)"><g transform="translate(0 0)"><rect width="1.488" height="1.488" fill="#989898"/></g></g><g transform="translate(24.55 116.647)"><g transform="translate(0 0)"><rect width="1.488" height="1.488" fill="#989898"/></g></g><g transform="translate(1.488 116.647)"><g transform="translate(0 0)"><rect width="1.488" height="1.488" fill="#989898"/></g></g><g transform="translate(0 104)"><g transform="translate(0 0)"><path d="M27.111,109.514a.46.46,0,0,0,.46-.46v-4.6a.46.46,0,0,0-.46-.46H.46a.46.46,0,0,0-.46.46v4.6a.46.46,0,0,0,.46.46,2.3,2.3,0,1,1,0,4.6.46.46,0,0,0-.46.46v4.6a.46.46,0,0,0,.46.46H27.111a.46.46,0,0,0,.46-.46v-4.6a.46.46,0,0,0-.46-.46,2.3,2.3,0,1,1,0-4.6Zm-3.186,2.755A3.217,3.217,0,0,0,26.652,115V118.7H.919V115a3.217,3.217,0,0,0,0-6.368v-3.709H26.652v3.709A3.217,3.217,0,0,0,23.925,112.269Z" transform="translate(0 -104)" fill="#989898"/></g></g><g transform="translate(11.947 107.217)"><g transform="translate(0 0)"><path d="M209.838,160a1.838,1.838,0,1,0,1.838,1.838A1.838,1.838,0,0,0,209.838,160Zm0,2.757a.919.919,0,1,1,.919-.919A.919.919,0,0,1,209.838,162.757Z" transform="translate(-208 -160)" fill="#989898"/></g></g><g transform="translate(17.461 112.731)"><path d="M305.838,256a1.838,1.838,0,1,0,1.838,1.838A1.838,1.838,0,0,0,305.838,256Zm0,2.757a.919.919,0,1,1,.919-.919A.919.919,0,0,1,305.838,258.757Z" transform="translate(-304 -256)" fill="#989898"/></g><g transform="translate(12.541 107.81)"><g transform="translate(0 0)"><rect width="10.397" height="0.919" transform="translate(0 7.352) rotate(-45)" fill="#989898"/></g></g></g></svg>