<svg xmlns="http://www.w3.org/2000/svg" width="19.885" height="18" viewBox="0 0 19.885 18"><g transform="translate(-7 -9.37)"><path d="M30.257,10.563H23.48l.378-.943a.4.4,0,0,1,.366-.251h5.289a.4.4,0,0,1,.366.251Z" transform="translate(-9.926)"/><path d="M25.664,23.9a8.487,8.487,0,0,0-.139-1,.8.8,0,0,0-1.062-.589l-2.8,1.062a.8.8,0,0,0,.322,1.535l2.931-.151a.8.8,0,0,0,.752-.859ZM13.705,27.2H20.18a.4.4,0,0,0,0-.8H13.705A.4.4,0,0,0,13.705,27.2ZM7,24.587a9.726,9.726,0,0,1,.863-4.008l.143-.314-.823-.525A.393.393,0,0,1,7,19.4v-.342a.4.4,0,0,1,.4-.4h1.36A14.49,14.49,0,0,1,9.8,16.907L11,15.209a1.989,1.989,0,0,1,1.623-.839h8.63a1.989,1.989,0,0,1,1.623.839l1.205,1.7a14.491,14.491,0,0,1,1.042,1.758h1.36a.4.4,0,0,1,.4.4V19.4a.392.392,0,0,1-.183.334l-.823.525.143.314a9.728,9.728,0,0,1,.863,4.009V27.6a.4.4,0,0,1-.4.4H7.4a.4.4,0,0,1-.4-.4ZM8.221,23.9a.8.8,0,0,0,.752.859l2.931.151a.8.8,0,0,0,.322-1.535l-2.8-1.062A.8.8,0,0,0,8.36,22.9a8.486,8.486,0,0,0-.139,1Zm16.135-3.862-2.772-3.913a.4.4,0,0,0-.326-.167h-8.63a.4.4,0,0,0-.326.167L9.529,20.041Z" transform="translate(0 -3.011)"/><path d="M11.386,50.63v1.193a.4.4,0,0,1-.4.4H9.4a.4.4,0,0,1-.4-.4V50.63Z" transform="translate(-1.205 -24.851)"/><path d="M51.386,50.63v1.193a.4.4,0,0,1-.4.4H49.4a.4.4,0,0,1-.4-.4V50.63Z" transform="translate(-25.297 -24.851)"/></g></svg>