<svg xmlns="http://www.w3.org/2000/svg" width="160" height="6.828" viewBox="0 0 160 6.828"><path d="M158.844,2.8c-2.36-.813-4.693-.372-7.193-.509q-4.155-.228-8.311-.433-7.563-.365-15.118-.676Q112.716.555,97.2.257,66.159-.333,35.115.432q-8.7.216-17.409.532c-2.77.1-5.55.2-8.32.342A46.105,46.105,0,0,0,.8,2.1c-1.328.32-.848,2.629.367,2.8a43.268,43.268,0,0,0,7.568.03c2.77-.09,5.55-.2,8.32-.3q7.563-.263,15.136-.456Q47.7,3.807,63.228,3.759q30.661-.09,61.314,1.14,8.7.353,17.391.813,4.156.228,8.311.478a43.3,43.3,0,0,1,4.85.464,8.9,8.9,0,0,0,3.846-.076c1.625-.35,1.214-3.312-.1-3.768l.009-.008Z" transform="translate(0 0)" fill="#9f9f9f"/></svg>