<svg xmlns="http://www.w3.org/2000/svg" width="24.559" height="25" viewBox="0 0 24.559 25"><g transform="translate(-23.922 -27)"><path d="M55.093,34.047a7.047,7.047,0,1,0-7.047,7.047A7.048,7.048,0,0,0,55.093,34.047Zm-12.255,0a5.208,5.208,0,1,1,5.208,5.208A5.2,5.2,0,0,1,42.838,34.047Z" transform="translate(-11.846)"/><path d="M24.405,89.333a.865.865,0,0,0,.46.123.888.888,0,0,0,.8-.46A12.124,12.124,0,0,1,46.77,89a.92.92,0,0,0,1.593-.919,13.99,13.99,0,0,0-24.326,0A.921.921,0,0,0,24.405,89.333Z" transform="translate(0 -37.456)" fill="#7c868c"/></g></svg>