<svg xmlns="http://www.w3.org/2000/svg" width="18" height="21.575" viewBox="0 0 18 21.575"><g transform="translate(0 0)"><path d="M92.228,10.393A5.028,5.028,0,0,0,95.9,8.87,5.028,5.028,0,0,0,97.425,5.2,5.029,5.029,0,0,0,95.9,1.522a5.2,5.2,0,0,0-7.348,0A5.028,5.028,0,0,0,87.032,5.2a5.028,5.028,0,0,0,1.523,3.674A5.029,5.029,0,0,0,92.228,10.393Zm0,0" transform="translate(-83.364)"/><path d="M17.956,253.485a12.835,12.835,0,0,0-.175-1.363,10.74,10.74,0,0,0-.335-1.371,6.769,6.769,0,0,0-.563-1.278,4.824,4.824,0,0,0-.85-1.107,3.746,3.746,0,0,0-1.221-.767,4.219,4.219,0,0,0-1.558-.282,1.582,1.582,0,0,0-.845.358c-.253.165-.549.356-.88.567a5.041,5.041,0,0,1-1.138.5,4.421,4.421,0,0,1-2.785,0,5.031,5.031,0,0,1-1.138-.5c-.327-.209-.624-.4-.881-.568a1.579,1.579,0,0,0-.844-.358,4.213,4.213,0,0,0-1.558.282,3.744,3.744,0,0,0-1.221.767,4.825,4.825,0,0,0-.849,1.107,6.783,6.783,0,0,0-.563,1.278,10.766,10.766,0,0,0-.335,1.37,12.79,12.79,0,0,0-.175,1.364c-.029.413-.043.841-.043,1.274a3.583,3.583,0,0,0,1.064,2.71,3.83,3.83,0,0,0,2.742,1H14.194a3.829,3.829,0,0,0,2.742-1A3.581,3.581,0,0,0,18,254.759c0-.435-.015-.864-.044-1.274Zm0,0" transform="translate(0 -236.895)"/></g></svg>