<svg xmlns="http://www.w3.org/2000/svg" width="27.334" height="17.422" viewBox="0 0 27.334 17.422"><g transform="translate(0 -92.835)"><g transform="translate(0 92.835)"><g transform="translate(0 0)"><path d="M27.16,101.014c-.244-.334-6.062-8.179-13.493-8.179S.417,100.68.173,101.014a.9.9,0,0,0,0,1.064c.244.334,6.062,8.179,13.493,8.179s13.249-7.845,13.493-8.179A.9.9,0,0,0,27.16,101.014Zm-13.493,7.44c-5.474,0-10.215-5.207-11.618-6.909,1.4-1.7,6.132-6.908,11.618-6.908s10.214,5.206,11.618,6.909C23.883,103.25,19.152,108.454,13.667,108.454Z" transform="translate(0 -92.835)" fill="#787878"/></g></g><g transform="translate(8.26 96.139)"><g transform="translate(0 0)"><path d="M160.129,154.725a5.407,5.407,0,1,0,5.407,5.407A5.413,5.413,0,0,0,160.129,154.725Zm0,9.011a3.6,3.6,0,1,1,3.6-3.6A3.608,3.608,0,0,1,160.129,163.736Z" transform="translate(-154.722 -154.725)" fill="#787878"/></g></g></g></svg>