<svg xmlns="http://www.w3.org/2000/svg" width="29" height="20" viewBox="0 0 29 20"><g transform="translate(0 -79.451)"><path d="M29,97.737a1.714,1.714,0,0,1-1.714,1.714H1.714A1.714,1.714,0,0,1,0,97.737V81.165a1.714,1.714,0,0,1,1.714-1.714H27.286A1.714,1.714,0,0,1,29,81.165V97.737Z" transform="translate(0 0)" fill="#fff"/><path d="M35.211,193.6l-.681-3.267a.812.812,0,0,0-.878-.6H30.53l-.028.149A6.421,6.421,0,0,1,35.211,193.6Z" transform="translate(-28.774 -104.035)" fill="#f79f1a"/><g transform="translate(0 79.451)"><path d="M186.776,190.892h-2.017l-1.26,7.393h2.014Z" transform="translate(-173.105 -184.58)" fill="#059bbf"/><path d="M69.773,198.362l3.172-7.381H70.811l-1.974,5.043-.211-.761a7.888,7.888,0,0,0-2.79-3.064l1.8,6.166Z" transform="translate(-62.107 -184.664)" fill="#059bbf"/><path d="M247.109,193.762c.007-.839-.531-1.48-1.693-2.008-.706-.342-1.136-.569-1.131-.916,0-.306.364-.635,1.154-.635a3.721,3.721,0,0,1,1.508.283l.182.084.273-1.6a5.224,5.224,0,0,0-1.807-.309c-1.991,0-3.393,1-3.406,2.439-.013,1.063,1,1.655,1.766,2.009.784.361,1.047.592,1.042.916-.005.5-.625.721-1.2.721a4.228,4.228,0,0,1-1.9-.388l-.258-.118-.283,1.657a6.358,6.358,0,0,0,2.244.393C245.718,196.288,247.094,195.3,247.109,193.762Z" transform="translate(-227.685 -182.473)" fill="#059bbf"/><path d="M342.925,197.3l2.581,0c.061.257.245,1.108.245,1.108h1.87l-1.632-7.388h-1.556a1,1,0,0,0-1.055.612l-2.993,6.776H342.5S342.847,197.5,342.925,197.3Zm1.381-3.58c-.01.02.167-.428.268-.706l.137.638s.385,1.766.466,2.136H343.5C343.672,195.366,344.307,193.724,344.307,193.724Z" transform="translate(-321.105 -184.707)" fill="#059bbf"/><path d="M27.286,79.451H1.714A1.714,1.714,0,0,0,0,81.165v1.779H29V81.165A1.714,1.714,0,0,0,27.286,79.451Z" transform="translate(0 -79.451)" fill="#059bbf"/></g><path d="M27.286,374.365H1.714A1.714,1.714,0,0,1,0,372.65v-1.779H29v1.779A1.714,1.714,0,0,1,27.286,374.365Z" transform="translate(0 -274.914)" fill="#f79f1a"/><path d="M1.219,97.737V81.165a1.714,1.714,0,0,1,1.714-1.714H1.714A1.714,1.714,0,0,0,0,81.165V97.737a1.714,1.714,0,0,0,1.714,1.714H2.933A1.714,1.714,0,0,1,1.219,97.737Z" transform="translate(0 0)" fill="#202121" opacity="0.15"/></g></svg>