<svg xmlns="http://www.w3.org/2000/svg" width="25" height="25" viewBox="0 0 25 25"><g transform="translate(-20 -19.998)"><g transform="translate(20 19.998)"><path d="M207.527,307.727a.521.521,0,0,0-.737,0l-4.419,4.419a.521.521,0,0,0,.737.737l4.419-4.419A.521.521,0,0,0,207.527,307.727Z" transform="translate(-192.728 -292.596)" fill="#3266fc"/><path d="M191.971,297.305a1.563,1.563,0,1,0-2.21,0A1.564,1.564,0,0,0,191.971,297.305Zm-1.473-1.473a.521.521,0,1,1,0,.737A.521.521,0,0,1,190.5,295.832Z" transform="translate(-180.486 -280.334)" fill="#3266fc"/><path d="M260.471,365.807a1.563,1.563,0,1,0,2.21,0A1.564,1.564,0,0,0,260.471,365.807Zm1.473,1.473a.521.521,0,1,1,0-.737A.521.521,0,0,1,261.944,367.28Z" transform="translate(-247.513 -347.362)" fill="#3266fc"/><path d="M44.479,35.623A.521.521,0,0,0,45,35.1V30.936a.521.521,0,0,0-.433-.513L44.2,28.7a.521.521,0,0,0-.619-.4,1.834,1.834,0,1,1-.772-3.587.521.521,0,0,0,.4-.619l-.793-3.684a.521.521,0,0,0-.619-.4L20.61,24.57a.521.521,0,0,0-.4.619L21,28.873a.521.521,0,0,0,.619.4,1.834,1.834,0,0,1,2.1,1.142h-3.2a.521.521,0,0,0-.521.521V35.1a.521.521,0,0,0,.521.521,2.083,2.083,0,1,1,0,4.167.521.521,0,0,0-.521.521v4.167a.521.521,0,0,0,.521.521H44.479A.521.521,0,0,0,45,44.477V40.311a.521.521,0,0,0-.521-.521,2.083,2.083,0,0,1,0-4.167ZM42.086,23.849a2.877,2.877,0,0,0,1.191,5.531l.223,1.034H28.271L27.046,24.25,41.5,21.138ZM21.922,28.19l-.584-2.711,4.689-1.01,1.182,5.945h-2.4a2.875,2.875,0,0,0-2.887-2.225Zm22.037,12.6v3.168H26.771V39.269a.521.521,0,0,0-1.042,0v4.687H21.042V40.788a3.125,3.125,0,0,0,0-6.163V31.456H38.229v4.687a.521.521,0,1,0,1.042,0V31.456h4.687v3.168a3.125,3.125,0,0,0,0,6.163Z" transform="translate(-20 -19.998)" fill="#3266fc"/><path d="M51.562,23.125A1.562,1.562,0,1,0,50,21.562,1.564,1.564,0,0,0,51.562,23.125Zm0-2.083a.521.521,0,1,1-.521.521A.521.521,0,0,1,51.562,21.042Z" transform="translate(-48.438 -20)" fill="#3266fc"/><path d="M220.668,92.579l5.208-1.562a.521.521,0,0,0-.3-1l-5.208,1.562a.521.521,0,0,0,.3,1Z" transform="translate(-209.581 -86.351)" fill="#3266fc"/><path d="M210.025,123.287a.521.521,0,0,0,.659.329l7.812-2.6a.521.521,0,1,0-.329-.988l-7.812,2.6A.521.521,0,0,0,210.025,123.287Z" transform="translate(-200.102 -114.789)" fill="#3266fc"/><path d="M130,340h1.042v1.042H130Z" transform="translate(-124.271 -323.333)" fill="#3266fc"/><path d="M130,300h1.042v1.042H130Z" transform="translate(-124.271 -285.417)" fill="#3266fc"/><path d="M130,260h1.042v1.042H130Z" transform="translate(-124.271 -247.5)" fill="#3266fc"/><path d="M370,360h1.042v1.042H370Z" transform="translate(-351.771 -342.292)" fill="#3266fc"/><path d="M370,400h1.042v1.042H370Z" transform="translate(-351.771 -380.208)" fill="#3266fc"/><path d="M370,440h1.042v1.042H370Z" transform="translate(-351.771 -418.125)" fill="#3266fc"/></g></g></svg>