<svg xmlns="http://www.w3.org/2000/svg" width="35" height="35" viewBox="0 0 35 35"><g transform="translate(0.005 0.005)"><g transform="translate(-0.005 -0.005)"><path d="M28.734,34.4a105.906,105.906,0,0,1-22.47,0A6.377,6.377,0,0,1,.592,28.734a105.9,105.9,0,0,1,0-22.47A6.377,6.377,0,0,1,6.256.592a105.906,105.906,0,0,1,22.47,0A6.377,6.377,0,0,1,34.4,6.256a105.906,105.906,0,0,1,0,22.47A6.377,6.377,0,0,1,28.734,34.4Z" transform="translate(0.005 0.005)" fill="#29a71a"/><g transform="translate(6.652 6.568)"><path d="M52.011,36.241A10.851,10.851,0,0,0,34.627,48.794l-1.151,5.59a.414.414,0,0,0,.066.324.42.42,0,0,0,.445.173l5.478-1.3A10.849,10.849,0,0,0,52.011,36.241ZM50.3,49.874a8.5,8.5,0,0,1-9.787,1.591l-.764-.378-3.359.8.01-.042.7-3.38-.374-.738A8.5,8.5,0,0,1,50.3,37.861a.452.452,0,0,0,.044.044A8.495,8.495,0,0,1,50.3,49.874Z" transform="translate(-33.447 -33.024)" fill="#fff"/><path d="M71.688,70.015a3.528,3.528,0,0,1-1.879,1.639c-1.432.346-3.629.012-6.363-2.537l-.034-.03c-2.4-2.229-3.029-4.084-2.877-5.556A3.517,3.517,0,0,1,61.9,61.446a.781.781,0,0,1,1.223.28l.885,1.989a.777.777,0,0,1-.1.8l-.447.581a.77.77,0,0,0-.07.859,8.36,8.36,0,0,0,1.517,1.684,8.855,8.855,0,0,0,2.1,1.505.76.76,0,0,0,.833-.175l.519-.523a.8.8,0,0,1,.776-.2l2.1.6a.8.8,0,0,1,.445,1.175Z" transform="translate(-55.131 -55.645)" fill="#fff"/></g></g></g></svg>