<svg xmlns="http://www.w3.org/2000/svg" width="18" height="18" viewBox="0 0 18 18"><path d="M9,18a9,9,0,1,1,9-9A9.01,9.01,0,0,1,9,18ZM9,1.286A7.714,7.714,0,1,0,16.714,9,7.723,7.723,0,0,0,9,1.286Zm0,0" fill="red"/><path d="M153.358,154a.64.64,0,0,1-.455-.188l-6.428-6.428a.643.643,0,0,1,.909-.909l6.428,6.428a.643.643,0,0,1-.454,1.1Zm0,0" transform="translate(-141.144 -141.145)" fill="red"/><path d="M146.929,154a.643.643,0,0,1-.454-1.1l6.428-6.428a.643.643,0,0,1,.909.909l-6.428,6.428A.64.64,0,0,1,146.929,154Zm0,0" transform="translate(-141.143 -141.144)" fill="red"/></svg>